<svg width="668" height="1254" xmlns="http://www.w3.org/2000/svg" xmlns:xlink="http://www.w3.org/1999/xlink" xml:space="preserve" overflow="hidden"><g transform="translate(-1118 -254)"><g><g><g><path d="M72.4626 14.2083C72.4626 19.9153 67.8362 24.5417 62.1292 24.5417 56.4223 24.5417 51.7959 19.9153 51.7959 14.2083 51.7959 8.5014 56.4223 3.875 62.1292 3.875 67.8362 3.875 72.4626 8.5014 72.4626 14.2083Z" fill="#B73377" transform="matrix(1 0 0 1.00806 1118 254)"/><path d="M90.2876 66.9084 80.9876 34.875C80.7292 33.5834 79.9542 32.55 78.9209 32.0334 75.8209 29.9667 72.2042 28.675 68.0709 27.6417 66.0042 27.3834 64.1959 27.125 62.1292 27.125 60.0625 27.125 58.2542 27.3834 56.1875 27.6417 52.0542 28.4167 48.4375 29.9667 45.3375 32.0334 44.3042 32.8084 43.5292 33.5834 43.2709 34.875L33.7125 66.9084C32.9375 69.7501 34.4875 72.5917 37.3292 73.3667 37.8459 73.6251 38.3625 73.6251 38.8792 73.6251 41.2042 73.6251 43.2709 72.0751 43.7875 70.0084L51.7959 42.8834 51.7959 51.925 42.2375 83.9584 49.2125 83.9584 49.2125 120.125 59.5459 120.125 59.5459 83.9584 64.7125 83.9584 64.7125 120.125 75.0459 120.125 75.0459 83.9584 82.0209 83.9584 72.4626 51.925 72.4626 42.8834 80.4709 70.0084C81.2459 72.3334 83.3126 73.6251 85.3792 73.6251 85.8959 73.6251 86.4126 73.6251 86.9292 73.3667 89.5126 72.5917 91.0626 69.7501 90.2876 66.9084Z" fill="#B73377" transform="matrix(1 0 0 1.00806 1118 254)"/></g></g></g><g><g><g><path d="M1733.92 268.323C1733.92 274.076 1729.25 278.74 1723.5 278.74 1717.75 278.74 1713.08 274.076 1713.08 268.323 1713.08 262.57 1717.75 257.906 1723.5 257.906 1729.25 257.906 1733.92 262.57 1733.92 268.323Z" fill="#2DA9D9"/><path d="M1751.89 321.969 1744.59 290.979C1744.33 289.938 1743.81 288.896 1743.03 288.115 1739.91 285.51 1736.26 283.688 1732.09 282.385 1729.23 281.865 1726.36 281.344 1723.5 281.344 1720.64 281.344 1717.77 281.865 1714.91 282.646 1710.74 283.688 1707.09 285.771 1703.97 288.375 1703.19 289.156 1702.67 290.198 1702.41 291.24L1695.11 322.229C1695.11 322.49 1694.85 323.011 1694.85 323.531 1694.85 326.396 1697.2 328.74 1700.06 328.74 1702.41 328.74 1704.49 326.917 1705.01 324.833L1710.48 302.177 1710.48 375.094 1720.9 375.094 1720.9 328.219 1726.1 328.219 1726.1 375.094 1736.52 375.094 1736.52 301.917 1741.99 324.573C1742.51 326.656 1744.59 328.479 1746.94 328.479 1749.8 328.479 1752.15 326.136 1752.15 323.271 1752.15 322.75 1751.89 322.229 1751.89 321.969Z" fill="#2DA9D9"/></g></g></g><g><g><g><path d="M72.4626 14.2083C72.4626 19.9153 67.8362 24.5417 62.1292 24.5417 56.4223 24.5417 51.7959 19.9153 51.7959 14.2083 51.7959 8.5014 56.4223 3.875 62.1292 3.875 67.8362 3.875 72.4626 8.5014 72.4626 14.2083Z" fill="#B73377" transform="matrix(1 0 0 1.00806 1118 379)"/><path d="M90.2876 66.9084 80.9876 34.875C80.7292 33.5834 79.9542 32.55 78.9209 32.0334 75.8209 29.9667 72.2042 28.675 68.0709 27.6417 66.0042 27.3834 64.1959 27.125 62.1292 27.125 60.0625 27.125 58.2542 27.3834 56.1875 27.6417 52.0542 28.4167 48.4375 29.9667 45.3375 32.0334 44.3042 32.8084 43.5292 33.5834 43.2709 34.875L33.7125 66.9084C32.9375 69.7501 34.4875 72.5917 37.3292 73.3667 37.8459 73.6251 38.3625 73.6251 38.8792 73.6251 41.2042 73.6251 43.2709 72.0751 43.7875 70.0084L51.7959 42.8834 51.7959 51.925 42.2375 83.9584 49.2125 83.9584 49.2125 120.125 59.5459 120.125 59.5459 83.9584 64.7125 83.9584 64.7125 120.125 75.0459 120.125 75.0459 83.9584 82.0209 83.9584 72.4626 51.925 72.4626 42.8834 80.4709 70.0084C81.2459 72.3334 83.3126 73.6251 85.3792 73.6251 85.8959 73.6251 86.4126 73.6251 86.9292 73.3667 89.5126 72.5917 91.0626 69.7501 90.2876 66.9084Z" fill="#B73377" transform="matrix(1 0 0 1.00806 1118 379)"/></g></g></g><g><g><g><path d="M72.9165 14.3229C72.9165 20.0758 68.2528 24.7395 62.4999 24.7395 56.7469 24.7395 52.0832 20.0758 52.0832 14.3229 52.0832 8.56993 56.7469 3.90624 62.4999 3.90624 68.2528 3.90624 72.9165 8.56993 72.9165 14.3229Z" fill="#2DA9D9" transform="matrix(1 0 0 1 1661 379)"/><path d="M90.8853 67.9686 83.5936 36.9791C83.3332 35.9374 82.8123 34.8958 82.0311 34.1145 78.9061 31.5104 75.2603 29.6874 71.0936 28.3854 68.229 27.8645 65.3645 27.3437 62.4999 27.3437 59.6353 27.3437 56.7707 27.8645 53.9062 28.6458 49.7395 29.6874 46.0937 31.7708 42.9687 34.3749 42.1874 35.1562 41.6666 36.1978 41.4062 37.2395L34.1145 68.229C34.1145 68.4895 33.8541 69.0103 33.8541 69.5311 33.8541 72.3957 36.1978 74.7394 39.0624 74.7394 41.4062 74.7394 43.4895 72.9165 44.0103 70.8332L49.4791 48.177 49.4791 121.094 59.8957 121.094 59.8957 74.2186 65.104 74.2186 65.104 121.094 75.5207 121.094 75.5207 47.9166 80.9894 70.5728C81.5103 72.6561 83.5936 74.479 85.9373 74.479 88.8019 74.479 91.1457 72.1353 91.1457 69.2707 91.1457 68.7499 90.8853 68.229 90.8853 67.9686Z" fill="#2DA9D9" transform="matrix(1 0 0 1 1661 379)"/></g></g></g><g><g><g><path d="M72.4626 14.2083C72.4626 19.9153 67.8362 24.5417 62.1292 24.5417 56.4223 24.5417 51.7959 19.9153 51.7959 14.2083 51.7959 8.5014 56.4223 3.875 62.1292 3.875 67.8362 3.875 72.4626 8.5014 72.4626 14.2083Z" fill="#B73377" transform="matrix(1 0 0 1.00806 1118 504)"/><path d="M90.2876 66.9084 80.9876 34.875C80.7292 33.5834 79.9542 32.55 78.9209 32.0334 75.8209 29.9667 72.2042 28.675 68.0709 27.6417 66.0042 27.3834 64.1959 27.125 62.1292 27.125 60.0625 27.125 58.2542 27.3834 56.1875 27.6417 52.0542 28.4167 48.4375 29.9667 45.3375 32.0334 44.3042 32.8084 43.5292 33.5834 43.2709 34.875L33.7125 66.9084C32.9375 69.7501 34.4875 72.5917 37.3292 73.3667 37.8459 73.6251 38.3625 73.6251 38.8792 73.6251 41.2042 73.6251 43.2709 72.0751 43.7875 70.0084L51.7959 42.8834 51.7959 51.925 42.2375 83.9584 49.2125 83.9584 49.2125 120.125 59.5459 120.125 59.5459 83.9584 64.7125 83.9584 64.7125 120.125 75.0459 120.125 75.0459 83.9584 82.0209 83.9584 72.4626 51.925 72.4626 42.8834 80.4709 70.0084C81.2459 72.3334 83.3126 73.6251 85.3792 73.6251 85.8959 73.6251 86.4126 73.6251 86.9292 73.3667 89.5126 72.5917 91.0626 69.7501 90.2876 66.9084Z" fill="#B73377" transform="matrix(1 0 0 1.00806 1118 504)"/></g></g></g><g><g><g><path d="M1733.92 518.323C1733.92 524.076 1729.25 528.74 1723.5 528.74 1717.75 528.74 1713.08 524.076 1713.08 518.323 1713.08 512.57 1717.75 507.906 1723.5 507.906 1729.25 507.906 1733.92 512.57 1733.92 518.323Z" fill="#2DA9D9"/><path d="M1751.89 571.969 1744.59 540.979C1744.33 539.938 1743.81 538.896 1743.03 538.115 1739.91 535.51 1736.26 533.688 1732.09 532.385 1729.23 531.865 1726.36 531.344 1723.5 531.344 1720.64 531.344 1717.77 531.865 1714.91 532.646 1710.74 533.688 1707.09 535.771 1703.97 538.375 1703.19 539.156 1702.67 540.198 1702.41 541.24L1695.11 572.229C1695.11 572.49 1694.85 573.01 1694.85 573.531 1694.85 576.396 1697.2 578.74 1700.06 578.74 1702.41 578.74 1704.49 576.917 1705.01 574.833L1710.48 552.177 1710.48 625.094 1720.9 625.094 1720.9 578.219 1726.1 578.219 1726.1 625.094 1736.52 625.094 1736.52 551.917 1741.99 574.573C1742.51 576.656 1744.59 578.479 1746.94 578.479 1749.8 578.479 1752.15 576.135 1752.15 573.271 1752.15 572.75 1751.89 572.229 1751.89 571.969Z" fill="#2DA9D9"/></g></g></g><g><g><g><path d="M72.4623 14.2083C72.4623 19.9152 67.836 24.5416 62.129 24.5416 56.4221 24.5416 51.7957 19.9152 51.7957 14.2083 51.7957 8.50137 56.4221 3.87499 62.129 3.87499 67.836 3.87499 72.4623 8.50137 72.4623 14.2083Z" fill="#B73377" transform="matrix(1 0 0 1 1118 630)"/><path d="M90.2873 66.9082 80.9873 34.8749C80.729 33.5833 79.954 32.5499 78.9207 32.0333 75.8207 29.9666 72.204 28.6749 68.0707 27.6416 66.004 27.3833 64.1957 27.1249 62.129 27.1249 60.0624 27.1249 58.254 27.3833 56.1874 27.6416 52.0541 28.4166 48.4374 29.9666 45.3374 32.0333 44.3041 32.8083 43.5291 33.5833 43.2707 34.8749L33.7124 66.9082C32.9374 69.7498 34.4874 72.5915 37.3291 73.3665 37.8458 73.6248 38.3624 73.6248 38.8791 73.6248 41.2041 73.6248 43.2707 72.0748 43.7874 70.0082L51.7957 42.8832 51.7957 51.9249 42.2374 83.9582 49.2124 83.9582 49.2124 120.125 59.5457 120.125 59.5457 83.9582 64.7124 83.9582 64.7124 120.125 75.0457 120.125 75.0457 83.9582 82.0207 83.9582 72.4623 51.9249 72.4623 42.8832 80.4707 70.0082C81.2457 72.3332 83.3123 73.6248 85.379 73.6248 85.8956 73.6248 86.4123 73.6248 86.929 73.3665 89.5123 72.5915 91.0623 69.7498 90.2873 66.9082Z" fill="#B73377" transform="matrix(1 0 0 1 1118 630)"/></g></g></g><g><g><g><path d="M72.3332 14.2083C72.3332 19.9152 67.7068 24.5416 61.9999 24.5416 56.2929 24.5416 51.6666 19.9152 51.6666 14.2083 51.6666 8.50137 56.2929 3.87499 61.9999 3.87499 67.7068 3.87499 72.3332 8.50137 72.3332 14.2083Z" fill="#2DA9D9" transform="matrix(1.00807 0 0 1 1661 630)"/><path d="M90.1581 67.4249 82.9248 36.6833C82.6665 35.6499 82.1498 34.6166 81.3748 33.8416 78.2748 31.2583 74.6582 29.4499 70.5248 28.1583 67.6832 27.6416 64.8415 27.1249 61.9999 27.1249 59.1582 27.1249 56.3165 27.6416 53.4749 28.4166 49.3416 29.4499 45.7249 31.5166 42.6249 34.0999 41.8499 34.8749 41.3332 35.9083 41.0749 36.9416L33.8416 67.6832C33.8416 67.9415 33.5833 68.4582 33.5833 68.9749 33.5833 71.8165 35.9083 74.1415 38.7499 74.1415 41.0749 74.1415 43.1416 72.3332 43.6582 70.2665L49.0832 47.7916 49.0832 120.125 59.4165 120.125 59.4165 73.6248 64.5832 73.6248 64.5832 120.125 74.9165 120.125 74.9165 47.5332 80.3415 70.0082C80.8582 72.0748 82.9248 73.8832 85.2498 73.8832 88.0915 73.8832 90.4165 71.5582 90.4165 68.7165 90.4165 68.1999 90.1581 67.6832 90.1581 67.4249Z" fill="#2DA9D9" transform="matrix(1.00807 0 0 1 1661 630)"/></g></g></g><g><g><g><path d="M72.4626 14.2083C72.4626 19.9153 67.8362 24.5417 62.1292 24.5417 56.4223 24.5417 51.7959 19.9153 51.7959 14.2083 51.7959 8.5014 56.4223 3.875 62.1292 3.875 67.8362 3.875 72.4626 8.5014 72.4626 14.2083Z" fill="#B73377" transform="matrix(1 0 0 1.00806 1118 754)"/><path d="M90.2876 66.9084 80.9876 34.875C80.7292 33.5834 79.9542 32.55 78.9209 32.0334 75.8209 29.9667 72.2042 28.675 68.0709 27.6417 66.0042 27.3834 64.1959 27.125 62.1292 27.125 60.0625 27.125 58.2542 27.3834 56.1875 27.6417 52.0542 28.4167 48.4375 29.9667 45.3375 32.0334 44.3042 32.8084 43.5292 33.5834 43.2709 34.875L33.7125 66.9084C32.9375 69.7501 34.4875 72.5917 37.3292 73.3667 37.8459 73.6251 38.3625 73.6251 38.8792 73.6251 41.2042 73.6251 43.2709 72.0751 43.7875 70.0084L51.7959 42.8834 51.7959 51.925 42.2375 83.9584 49.2125 83.9584 49.2125 120.125 59.5459 120.125 59.5459 83.9584 64.7125 83.9584 64.7125 120.125 75.0459 120.125 75.0459 83.9584 82.0209 83.9584 72.4626 51.925 72.4626 42.8834 80.4709 70.0084C81.2459 72.3334 83.3126 73.6251 85.3792 73.6251 85.8959 73.6251 86.4126 73.6251 86.9292 73.3667 89.5126 72.5917 91.0626 69.7501 90.2876 66.9084Z" fill="#B73377" transform="matrix(1 0 0 1.00806 1118 754)"/></g></g></g><g><g><g><path d="M1733.92 768.323C1733.92 774.076 1729.25 778.739 1723.5 778.739 1717.75 778.739 1713.08 774.076 1713.08 768.323 1713.08 762.57 1717.75 757.906 1723.5 757.906 1729.25 757.906 1733.92 762.57 1733.92 768.323Z" fill="#2DA9D9"/><path d="M1751.89 821.969 1744.59 790.979C1744.33 789.937 1743.81 788.896 1743.03 788.114 1739.91 785.51 1736.26 783.687 1732.09 782.385 1729.23 781.864 1726.36 781.344 1723.5 781.344 1720.64 781.344 1717.77 781.864 1714.91 782.646 1710.74 783.687 1707.09 785.771 1703.97 788.375 1703.19 789.156 1702.67 790.198 1702.41 791.239L1695.11 822.229C1695.11 822.49 1694.85 823.01 1694.85 823.531 1694.85 826.396 1697.2 828.74 1700.06 828.74 1702.41 828.74 1704.49 826.917 1705.01 824.833L1710.48 802.177 1710.48 875.094 1720.9 875.094 1720.9 828.219 1726.1 828.219 1726.1 875.094 1736.52 875.094 1736.52 801.917 1741.99 824.573C1742.51 826.656 1744.59 828.479 1746.94 828.479 1749.8 828.479 1752.15 826.135 1752.15 823.271 1752.15 822.75 1751.89 822.229 1751.89 821.969Z" fill="#2DA9D9"/></g></g></g><g><g><g><path d="M72.4626 14.2083C72.4626 19.9153 67.8362 24.5417 62.1292 24.5417 56.4223 24.5417 51.7959 19.9153 51.7959 14.2083 51.7959 8.5014 56.4223 3.875 62.1292 3.875 67.8362 3.875 72.4626 8.5014 72.4626 14.2083Z" fill="#B73377" transform="matrix(1 0 0 1.00806 1118 878)"/><path d="M90.2876 66.9084 80.9876 34.875C80.7292 33.5834 79.9542 32.55 78.9209 32.0334 75.8209 29.9667 72.2042 28.675 68.0709 27.6417 66.0042 27.3834 64.1959 27.125 62.1292 27.125 60.0625 27.125 58.2542 27.3834 56.1875 27.6417 52.0542 28.4167 48.4375 29.9667 45.3375 32.0334 44.3042 32.8084 43.5292 33.5834 43.2709 34.875L33.7125 66.9084C32.9375 69.7501 34.4875 72.5917 37.3292 73.3667 37.8459 73.6251 38.3625 73.6251 38.8792 73.6251 41.2042 73.6251 43.2709 72.0751 43.7875 70.0084L51.7959 42.8834 51.7959 51.925 42.2375 83.9584 49.2125 83.9584 49.2125 120.125 59.5459 120.125 59.5459 83.9584 64.7125 83.9584 64.7125 120.125 75.0459 120.125 75.0459 83.9584 82.0209 83.9584 72.4626 51.925 72.4626 42.8834 80.4709 70.0084C81.2459 72.3334 83.3126 73.6251 85.3792 73.6251 85.8959 73.6251 86.4126 73.6251 86.9292 73.3667 89.5126 72.5917 91.0626 69.7501 90.2876 66.9084Z" fill="#B73377" transform="matrix(1 0 0 1.00806 1118 878)"/></g></g></g><g><g><g><path d="M1733.92 892.323C1733.92 898.076 1729.25 902.74 1723.5 902.74 1717.75 902.74 1713.08 898.076 1713.08 892.323 1713.08 886.57 1717.75 881.906 1723.5 881.906 1729.25 881.906 1733.92 886.57 1733.92 892.323Z" fill="#2DA9D9"/><path d="M1751.89 945.969 1744.59 914.979C1744.33 913.938 1743.81 912.896 1743.03 912.115 1739.91 909.51 1736.26 907.688 1732.09 906.385 1729.23 905.865 1726.36 905.344 1723.5 905.344 1720.64 905.344 1717.77 905.865 1714.91 906.646 1710.74 907.688 1707.09 909.771 1703.97 912.375 1703.19 913.156 1702.67 914.198 1702.41 915.24L1695.11 946.229C1695.11 946.49 1694.85 947.01 1694.85 947.531 1694.85 950.396 1697.2 952.74 1700.06 952.74 1702.41 952.74 1704.49 950.917 1705.01 948.833L1710.48 926.177 1710.48 999.094 1720.9 999.094 1720.9 952.219 1726.1 952.219 1726.1 999.094 1736.52 999.094 1736.52 925.917 1741.99 948.573C1742.51 950.656 1744.59 952.479 1746.94 952.479 1749.8 952.479 1752.15 950.135 1752.15 947.271 1752.15 946.75 1751.89 946.229 1751.89 945.969Z" fill="#2DA9D9"/></g></g></g><g><g><g><path d="M72.4626 14.2083C72.4626 19.9153 67.8362 24.5417 62.1292 24.5417 56.4223 24.5417 51.7959 19.9153 51.7959 14.2083 51.7959 8.5014 56.4223 3.875 62.1292 3.875 67.8362 3.875 72.4626 8.5014 72.4626 14.2083Z" fill="#B73377" transform="matrix(1 0 0 1.00806 1118 1001)"/><path d="M90.2876 66.9084 80.9876 34.875C80.7292 33.5834 79.9542 32.55 78.9209 32.0334 75.8209 29.9667 72.2042 28.675 68.0709 27.6417 66.0042 27.3834 64.1959 27.125 62.1292 27.125 60.0625 27.125 58.2542 27.3834 56.1875 27.6417 52.0542 28.4167 48.4375 29.9667 45.3375 32.0334 44.3042 32.8084 43.5292 33.5834 43.2709 34.875L33.7125 66.9084C32.9375 69.7501 34.4875 72.5917 37.3292 73.3667 37.8459 73.6251 38.3625 73.6251 38.8792 73.6251 41.2042 73.6251 43.2709 72.0751 43.7875 70.0084L51.7959 42.8834 51.7959 51.925 42.2375 83.9584 49.2125 83.9584 49.2125 120.125 59.5459 120.125 59.5459 83.9584 64.7125 83.9584 64.7125 120.125 75.0459 120.125 75.0459 83.9584 82.0209 83.9584 72.4626 51.925 72.4626 42.8834 80.4709 70.0084C81.2459 72.3334 83.3126 73.6251 85.3792 73.6251 85.8959 73.6251 86.4126 73.6251 86.9292 73.3667 89.5126 72.5917 91.0626 69.7501 90.2876 66.9084Z" fill="#B73377" transform="matrix(1 0 0 1.00806 1118 1001)"/></g></g></g><g><g><g><path d="M1733.92 1015.32C1733.92 1021.08 1729.25 1025.74 1723.5 1025.74 1717.75 1025.74 1713.08 1021.08 1713.08 1015.32 1713.08 1009.57 1717.75 1004.91 1723.5 1004.91 1729.25 1004.91 1733.92 1009.57 1733.92 1015.32Z" fill="#2DA9D9"/><path d="M1751.89 1068.97 1744.59 1037.98C1744.33 1036.94 1743.81 1035.9 1743.03 1035.11 1739.91 1032.51 1736.26 1030.69 1732.09 1029.39 1729.23 1028.86 1726.36 1028.34 1723.5 1028.34 1720.64 1028.34 1717.77 1028.86 1714.91 1029.65 1710.74 1030.69 1707.09 1032.77 1703.97 1035.38 1703.19 1036.16 1702.67 1037.2 1702.41 1038.24L1695.11 1069.23C1695.11 1069.49 1694.85 1070.01 1694.85 1070.53 1694.85 1073.4 1697.2 1075.74 1700.06 1075.74 1702.41 1075.74 1704.49 1073.92 1705.01 1071.83L1710.48 1049.18 1710.48 1122.09 1720.9 1122.09 1720.9 1075.22 1726.1 1075.22 1726.1 1122.09 1736.52 1122.09 1736.52 1048.92 1741.99 1071.57C1742.51 1073.66 1744.59 1075.48 1746.94 1075.48 1749.8 1075.48 1752.15 1073.14 1752.15 1070.27 1752.15 1069.75 1751.89 1069.23 1751.89 1068.97Z" fill="#2DA9D9"/></g></g></g><g><g><g><path d="M72.4626 14.2083C72.4626 19.9153 67.8362 24.5417 62.1292 24.5417 56.4223 24.5417 51.7959 19.9153 51.7959 14.2083 51.7959 8.5014 56.4223 3.875 62.1292 3.875 67.8362 3.875 72.4626 8.5014 72.4626 14.2083Z" fill="#B73377" transform="matrix(1 0 0 1.00806 1118 1123)"/><path d="M90.2876 66.9084 80.9876 34.875C80.7292 33.5834 79.9542 32.55 78.9209 32.0334 75.8209 29.9667 72.2042 28.675 68.0709 27.6417 66.0042 27.3834 64.1959 27.125 62.1292 27.125 60.0625 27.125 58.2542 27.3834 56.1875 27.6417 52.0542 28.4167 48.4375 29.9667 45.3375 32.0334 44.3042 32.8084 43.5292 33.5834 43.2709 34.875L33.7125 66.9084C32.9375 69.7501 34.4875 72.5917 37.3292 73.3667 37.8459 73.6251 38.3625 73.6251 38.8792 73.6251 41.2042 73.6251 43.2709 72.0751 43.7875 70.0084L51.7959 42.8834 51.7959 51.925 42.2375 83.9584 49.2125 83.9584 49.2125 120.125 59.5459 120.125 59.5459 83.9584 64.7125 83.9584 64.7125 120.125 75.0459 120.125 75.0459 83.9584 82.0209 83.9584 72.4626 51.925 72.4626 42.8834 80.4709 70.0084C81.2459 72.3334 83.3126 73.6251 85.3792 73.6251 85.8959 73.6251 86.4126 73.6251 86.9292 73.3667 89.5126 72.5917 91.0626 69.7501 90.2876 66.9084Z" fill="#B73377" transform="matrix(1 0 0 1.00806 1118 1123)"/></g></g></g><g><g><g><path d="M1733.92 1137.32C1733.92 1143.08 1729.25 1147.74 1723.5 1147.74 1717.75 1147.74 1713.08 1143.08 1713.08 1137.32 1713.08 1131.57 1717.75 1126.91 1723.5 1126.91 1729.25 1126.91 1733.92 1131.57 1733.92 1137.32Z" fill="#2DA9D9"/><path d="M1751.89 1190.97 1744.59 1159.98C1744.33 1158.94 1743.81 1157.9 1743.03 1157.11 1739.91 1154.51 1736.26 1152.69 1732.09 1151.39 1729.23 1150.86 1726.36 1150.34 1723.5 1150.34 1720.64 1150.34 1717.77 1150.86 1714.91 1151.65 1710.74 1152.69 1707.09 1154.77 1703.97 1157.38 1703.19 1158.16 1702.67 1159.2 1702.41 1160.24L1695.11 1191.23C1695.11 1191.49 1694.85 1192.01 1694.85 1192.53 1694.85 1195.4 1697.2 1197.74 1700.06 1197.74 1702.41 1197.74 1704.49 1195.92 1705.01 1193.83L1710.48 1171.18 1710.48 1244.09 1720.9 1244.09 1720.9 1197.22 1726.1 1197.22 1726.1 1244.09 1736.52 1244.09 1736.52 1170.92 1741.99 1193.57C1742.51 1195.66 1744.59 1197.48 1746.94 1197.48 1749.8 1197.48 1752.15 1195.14 1752.15 1192.27 1752.15 1191.75 1751.89 1191.23 1751.89 1190.97Z" fill="#2DA9D9"/></g></g></g><g><g><g><path d="M1190.46 1263.21C1190.46 1268.92 1185.84 1273.54 1180.13 1273.54 1174.42 1273.54 1169.8 1268.92 1169.8 1263.21 1169.8 1257.5 1174.42 1252.87 1180.13 1252.87 1185.84 1252.87 1190.46 1257.5 1190.46 1263.21Z" fill="#B73377"/><path d="M1208.29 1315.91 1198.99 1283.87C1198.73 1282.58 1197.95 1281.55 1196.92 1281.03 1193.82 1278.97 1190.2 1277.67 1186.07 1276.64 1184 1276.38 1182.2 1276.12 1180.13 1276.12 1178.06 1276.12 1176.25 1276.38 1174.19 1276.64 1170.05 1277.42 1166.44 1278.97 1163.34 1281.03 1162.3 1281.81 1161.53 1282.58 1161.27 1283.87L1151.71 1315.91C1150.94 1318.75 1152.49 1321.59 1155.33 1322.37 1155.85 1322.62 1156.36 1322.62 1156.88 1322.62 1159.2 1322.62 1161.27 1321.07 1161.79 1319.01L1169.8 1291.88 1169.8 1300.92 1160.24 1332.96 1167.21 1332.96 1167.21 1369.12 1177.55 1369.12 1177.55 1332.96 1182.71 1332.96 1182.71 1369.12 1193.05 1369.12 1193.05 1332.96 1200.02 1332.96 1190.46 1300.92 1190.46 1291.88 1198.47 1319.01C1199.25 1321.33 1201.31 1322.62 1203.38 1322.62 1203.9 1322.62 1204.41 1322.62 1204.93 1322.37 1207.51 1321.59 1209.06 1318.75 1208.29 1315.91Z" fill="#B73377"/></g></g></g><g><g><g><path d="M72.3334 14.2083C72.3334 19.9153 67.707 24.5417 62 24.5417 56.2931 24.5417 51.6667 19.9153 51.6667 14.2083 51.6667 8.5014 56.2931 3.875 62 3.875 67.707 3.875 72.3334 8.5014 72.3334 14.2083Z" fill="#2DA9D9" transform="matrix(1.00806 0 0 1 1661 1249)"/><path d="M90.1584 67.4251 82.9251 36.6834C82.6667 35.65 82.1501 34.6167 81.3751 33.8417 78.2751 31.2584 74.6584 29.45 70.5251 28.1584 67.6834 27.6417 64.8417 27.125 62 27.125 59.1584 27.125 56.3167 27.6417 53.475 28.4167 49.3417 29.45 45.725 31.5167 42.625 34.1 41.85 34.875 41.3334 35.9084 41.075 36.9417L33.8417 67.6834C33.8417 67.9417 33.5834 68.4584 33.5834 68.9751 33.5834 71.8167 35.9084 74.1417 38.75 74.1417 41.075 74.1417 43.1417 72.3334 43.6584 70.2667L49.0834 47.7917 49.0834 120.125 59.4167 120.125 59.4167 73.6251 64.5834 73.6251 64.5834 120.125 74.9167 120.125 74.9167 47.5334 80.3417 70.0084C80.8584 72.0751 82.9251 73.8834 85.2501 73.8834 88.0917 73.8834 90.4167 71.5584 90.4167 68.7167 90.4167 68.2001 90.1584 67.6834 90.1584 67.4251Z" fill="#2DA9D9" transform="matrix(1.00806 0 0 1 1661 1249)"/></g></g></g><g><g><g><path d="M72.4626 14.2083C72.4626 19.9153 67.8362 24.5417 62.1292 24.5417 56.4223 24.5417 51.7959 19.9153 51.7959 14.2083 51.7959 8.5014 56.4223 3.875 62.1292 3.875 67.8362 3.875 72.4626 8.5014 72.4626 14.2083Z" fill="#B73377" transform="matrix(1 0 0 1.00806 1118 1383)"/><path d="M90.2876 66.9084 80.9876 34.875C80.7292 33.5834 79.9542 32.55 78.9209 32.0334 75.8209 29.9667 72.2042 28.675 68.0709 27.6417 66.0042 27.3834 64.1959 27.125 62.1292 27.125 60.0625 27.125 58.2542 27.3834 56.1875 27.6417 52.0542 28.4167 48.4375 29.9667 45.3375 32.0334 44.3042 32.8084 43.5292 33.5834 43.2709 34.875L33.7125 66.9084C32.9375 69.7501 34.4875 72.5917 37.3292 73.3667 37.8459 73.6251 38.3625 73.6251 38.8792 73.6251 41.2042 73.6251 43.2709 72.0751 43.7875 70.0084L51.7959 42.8834 51.7959 51.925 42.2375 83.9584 49.2125 83.9584 49.2125 120.125 59.5459 120.125 59.5459 83.9584 64.7125 83.9584 64.7125 120.125 75.0459 120.125 75.0459 83.9584 82.0209 83.9584 72.4626 51.925 72.4626 42.8834 80.4709 70.0084C81.2459 72.3334 83.3126 73.6251 85.3792 73.6251 85.8959 73.6251 86.4126 73.6251 86.9292 73.3667 89.5126 72.5917 91.0626 69.7501 90.2876 66.9084Z" fill="#B73377" transform="matrix(1 0 0 1.00806 1118 1383)"/></g></g></g><g><g><g><path d="M1733.92 1397.32C1733.92 1403.08 1729.25 1407.74 1723.5 1407.74 1717.75 1407.74 1713.08 1403.08 1713.08 1397.32 1713.08 1391.57 1717.75 1386.91 1723.5 1386.91 1729.25 1386.91 1733.92 1391.57 1733.92 1397.32Z" fill="#2DA9D9"/><path d="M1751.89 1450.97 1744.59 1419.98C1744.33 1418.94 1743.81 1417.9 1743.03 1417.11 1739.91 1414.51 1736.26 1412.69 1732.09 1411.39 1729.23 1410.86 1726.36 1410.34 1723.5 1410.34 1720.64 1410.34 1717.77 1410.86 1714.91 1411.65 1710.74 1412.69 1707.09 1414.77 1703.97 1417.37 1703.19 1418.16 1702.67 1419.2 1702.41 1420.24L1695.11 1451.23C1695.11 1451.49 1694.85 1452.01 1694.85 1452.53 1694.85 1455.4 1697.2 1457.74 1700.06 1457.74 1702.41 1457.74 1704.49 1455.92 1705.01 1453.83L1710.48 1431.18 1710.48 1504.09 1720.9 1504.09 1720.9 1457.22 1726.1 1457.22 1726.1 1504.09 1736.52 1504.09 1736.52 1430.92 1741.99 1453.57C1742.51 1455.66 1744.59 1457.48 1746.94 1457.48 1749.8 1457.48 1752.15 1455.14 1752.15 1452.27 1752.15 1451.75 1751.89 1451.23 1751.89 1450.97Z" fill="#2DA9D9"/></g></g></g><path d="M0.339657-1.09433 9.09433 1.62292 8.41502 3.81159-0.339657 1.09433ZM15.6603 3.66086 24.415 6.37812 23.7357 8.56679 14.981 5.84953ZM30.981 8.41606 39.7357 11.1333 39.0564 13.322 30.3017 10.6047ZM46.3017 13.1713 55.0564 15.8885 54.377 18.0772 45.6224 15.3599ZM61.6224 17.9265 70.377 20.6437 69.6977 22.8324 60.9431 20.1151ZM76.943 22.6817 85.6977 25.3989 85.0184 27.5876 76.2637 24.8703ZM92.2637 27.4369 101.018 30.1541 100.339 32.3428 91.5844 29.6255ZM107.584 32.1921 116.339 34.9093 115.66 37.098 106.905 34.3807ZM122.905 36.9473 131.66 39.6645 130.98 41.8532 122.226 39.1359ZM138.226 41.7025 146.98 44.4197 146.301 46.6084 137.546 43.8911ZM153.546 46.4577 162.301 49.1749 161.622 51.3636 152.867 48.6463ZM168.867 51.2129 177.622 53.9301 176.942 56.1188 168.188 53.4015ZM184.188 55.9681 192.943 58.6853 192.263 60.874 183.508 58.1567ZM199.509 60.7233 208.263 63.4405 207.584 65.6292 198.829 62.9119ZM214.829 65.4784 223.584 68.1957 222.905 70.3844 214.15 67.6671ZM230.15 70.2336 238.905 72.9509 238.225 75.1396 229.471 72.4223ZM245.471 74.9888 254.225 77.7061 253.546 79.8948 244.791 77.1775ZM260.791 79.744 269.546 82.4613 268.867 84.65 260.112 81.9327ZM276.112 84.4992 284.867 87.2165 284.187 89.4052 275.433 86.6879ZM291.433 89.2544 300.187 91.9717 299.508 94.1604 290.753 91.4431ZM306.753 94.0096 315.508 96.7269 314.829 98.9156 306.074 96.1983ZM322.074 98.7648 330.829 101.482 330.149 103.671 321.395 100.954ZM337.395 103.52 346.149 106.237 345.47 108.426 336.715 105.709ZM352.715 108.275 361.47 110.993 360.791 113.181 352.036 110.464ZM368.036 113.03 376.791 115.748 376.111 117.936 367.357 115.219ZM383.357 117.786 392.111 120.503 391.432 122.692 382.677 119.974ZM373.983 98.2431 396.819 123.164 363.885 130.775C363.269 130.918 362.654 130.533 362.511 129.917 362.369 129.3 362.753 128.685 363.369 128.542L394.389 121.373 393.802 123.264 372.293 99.7914C371.865 99.3248 371.897 98.6 372.364 98.1724 372.83 97.7449 373.555 97.7765 373.983 98.2431Z" transform="matrix(1 0 0 -1 1242 442.162)"/><path d="M0.32597-1.09849 9.11388 1.50927 8.46194 3.70625-0.32597 1.09849ZM15.7048 3.46509 24.4927 6.07284 23.8408 8.26982 15.0529 5.66206ZM31.0837 8.02866 39.8716 10.6364 39.2196 12.8334 30.4317 10.2256ZM46.4625 12.5922 55.2504 15.2 54.5985 17.397 45.8106 14.7892ZM61.8413 17.1558 70.6293 19.7636 69.9773 21.9606 61.1894 19.3528ZM77.2202 21.7194 86.0081 24.3271 85.3562 26.5241 76.5682 23.9164ZM92.599 26.283 101.387 28.8907 100.735 31.0877 91.9471 28.4799ZM107.978 30.8465 116.766 33.4543 116.114 35.6513 107.326 33.0435ZM123.357 35.4101 132.145 38.0179 131.493 40.2149 122.705 37.6071ZM138.736 39.9737 147.523 42.5815 146.872 44.7784 138.084 42.1707ZM154.114 44.5373 162.902 47.145 162.25 49.342 153.462 46.7342ZM169.493 49.1008 178.281 51.7086 177.629 53.9056 168.841 51.2978ZM184.872 53.6644 193.66 56.2722 193.008 58.4692 184.22 55.8614ZM200.251 58.228 209.039 60.8357 208.387 63.0327 199.599 60.425ZM215.63 62.7916 224.418 65.3993 223.766 67.5963 214.978 64.9885ZM231.009 67.3551 239.797 69.9629 239.145 72.1599 230.357 69.5521ZM246.387 71.9187 255.175 74.5265 254.523 76.7234 245.736 74.1157ZM261.766 76.4823 270.554 79.09 269.902 81.287 261.114 78.6793ZM277.145 81.0459 285.933 83.6536 285.281 85.8506 276.493 83.2428ZM292.524 85.6094 301.312 88.2172 300.66 90.4142 291.872 87.8064ZM307.903 90.173 316.691 92.7808 316.039 94.9778 307.251 92.37ZM323.282 94.7366 332.07 97.3444 331.418 99.5413 322.63 96.9336ZM338.661 99.3002 347.448 101.908 346.797 104.105 338.009 101.497ZM354.039 103.864 362.827 106.472 362.175 108.668 353.387 106.061ZM369.418 108.427 378.206 111.035 377.554 113.232 368.766 110.624ZM384.797 112.991 393.585 115.599 392.933 117.796 384.145 115.188ZM400.176 117.554 408.964 120.162 408.312 122.359 399.524 119.751ZM389.581 97.8404 412.726 122.474 379.891 130.496C379.276 130.646 378.656 130.269 378.506 129.655 378.356 129.04 378.732 128.42 379.347 128.27L410.274 120.714 409.711 122.612 387.911 99.4096C387.478 98.9484 387.5 98.2232 387.961 97.7899 388.423 97.3566 389.148 97.3792 389.581 97.8404Z" transform="matrix(1 0 0 -1 1242 560.472)"/><path d="M0.947657-0.644112 6.10055 6.93715 4.20524 8.22537-0.947657 0.644112ZM9.96522 12.6231 15.1181 20.2043 13.2228 21.4926 8.06991 13.9113ZM18.9828 25.8903 24.1357 33.4715 22.2404 34.7598 17.0875 27.1785ZM28.0004 39.1575 33.1532 46.7387 31.2579 48.027 26.105 40.4457ZM37.0179 52.4247 42.1708 60.006 40.2755 61.2942 35.1226 53.7129ZM46.0355 65.6919 51.1884 73.2732 49.2931 74.5614 44.1402 66.9801ZM55.053 78.9591 60.2059 86.5404 58.3106 87.8286 53.1577 80.2473ZM64.0706 92.2263 69.2235 99.8076 67.3282 101.096 62.1753 93.5145ZM73.0882 105.493 78.2411 113.075 76.3458 114.363 71.1929 106.782ZM82.1058 118.761 87.2586 126.342 85.3633 127.63 80.2104 120.049ZM91.1233 132.028 96.2762 139.609 94.3809 140.897 89.228 133.316ZM100.141 145.295 105.294 152.876 103.398 154.165 98.2456 146.583ZM109.158 158.562 114.311 166.144 112.416 167.432 107.263 159.851ZM118.176 171.829 123.329 179.411 121.434 180.699 116.281 173.118ZM127.194 185.097 132.346 192.678 130.451 193.966 125.298 186.385ZM136.211 198.364 141.364 205.945 139.469 207.233 134.316 199.652ZM145.229 211.631 150.382 219.212 148.486 220.501 143.333 212.919ZM154.246 224.898 159.399 232.48 157.504 233.768 152.351 226.187ZM163.264 238.166 168.417 245.747 166.521 247.035 161.368 239.454ZM172.281 251.433 177.434 259.014 175.539 260.302 170.386 252.721ZM181.299 264.7 186.452 272.281 184.557 273.569 179.404 265.988ZM190.316 277.967 195.469 285.548 193.574 286.837 188.421 279.255ZM199.334 291.234 204.487 298.816 202.592 300.104 197.439 292.523ZM208.352 304.502 213.504 312.083 211.609 313.371 206.456 305.79ZM217.369 317.769 222.522 325.35 220.627 326.638 215.474 319.057ZM226.387 331.036 231.54 338.617 229.644 339.906 224.491 332.324ZM235.404 344.303 240.557 351.884 238.662 353.173 233.509 345.591ZM244.422 357.57 249.575 365.152 247.679 366.44 242.526 358.859ZM253.439 370.838 258.592 378.419 256.697 379.707 251.544 372.126ZM262.457 384.105 267.61 391.686 265.715 392.974 260.562 385.393ZM271.474 397.372 276.627 404.953 274.732 406.242 269.579 398.66ZM280.492 410.639 285.645 418.221 283.75 419.509 278.597 411.927ZM289.51 423.906 294.663 431.488 292.767 432.776 287.614 425.195ZM298.527 437.174 303.68 444.755 301.785 446.043 296.632 438.462ZM307.545 450.441 312.698 458.022 310.802 459.31 305.649 451.729ZM316.562 463.708 321.715 471.289 319.82 472.578 314.667 464.996ZM325.58 476.975 330.733 484.557 328.837 485.845 323.685 478.264ZM334.598 490.243 339.75 497.824 337.855 499.112 332.702 491.531ZM343.615 503.51 348.768 511.091 346.873 512.379 341.72 504.798ZM352.633 516.777 357.786 524.358 355.89 525.646 350.737 518.065ZM361.65 530.044 366.803 537.625 364.908 538.914 359.755 531.332ZM370.668 543.311 375.821 550.893 373.925 552.181 368.772 544.599ZM379.685 556.578 384.838 564.16 382.943 565.448 377.79 557.867ZM388.703 569.846 393.856 577.427 391.96 578.715 386.808 571.134ZM397.72 583.113 402.873 590.694 400.978 591.982 395.825 584.401ZM406.738 596.38 411.891 603.961 409.996 605.249 404.843 597.668ZM415.756 609.647 418.633 613.881 416.738 615.169 413.86 610.935ZM416.65 582.705 418.977 616.426 388.479 601.853C387.908 601.58 387.666 600.896 387.939 600.325 388.212 599.754 388.896 599.512 389.467 599.785L418.193 613.511 416.556 614.624 414.364 582.862C414.321 582.231 414.797 581.684 415.428 581.64 416.06 581.597 416.607 582.073 416.65 582.705Z" transform="matrix(1 0 0 -1 1242 1308.42)"/><path d="M0.947657-0.644112 6.10055 6.93715 4.20524 8.22537-0.947657 0.644112ZM9.96522 12.6231 15.1181 20.2043 13.2228 21.4926 8.06991 13.9113ZM18.9828 25.8903 24.1357 33.4715 22.2404 34.7598 17.0875 27.1785ZM28.0004 39.1575 33.1532 46.7387 31.2579 48.027 26.105 40.4457ZM37.0179 52.4247 42.1708 60.006 40.2755 61.2942 35.1226 53.7129ZM46.0355 65.6919 51.1884 73.2732 49.2931 74.5614 44.1402 66.9801ZM55.053 78.9591 60.2059 86.5404 58.3106 87.8286 53.1577 80.2473ZM64.0706 92.2263 69.2235 99.8076 67.3282 101.096 62.1753 93.5145ZM73.0882 105.493 78.2411 113.075 76.3458 114.363 71.1929 106.782ZM82.1058 118.761 87.2586 126.342 85.3633 127.63 80.2104 120.049ZM91.1233 132.028 96.2762 139.609 94.3809 140.897 89.228 133.316ZM100.141 145.295 105.294 152.876 103.398 154.165 98.2456 146.583ZM109.158 158.562 114.311 166.144 112.416 167.432 107.263 159.851ZM118.176 171.829 123.329 179.411 121.434 180.699 116.281 173.118ZM127.194 185.097 132.346 192.678 130.451 193.966 125.298 186.385ZM136.211 198.364 141.364 205.945 139.469 207.233 134.316 199.652ZM145.229 211.631 150.382 219.212 148.486 220.501 143.333 212.919ZM154.246 224.898 159.399 232.48 157.504 233.768 152.351 226.187ZM163.264 238.166 168.417 245.747 166.521 247.035 161.368 239.454ZM172.281 251.433 177.434 259.014 175.539 260.302 170.386 252.721ZM181.299 264.7 186.452 272.281 184.557 273.569 179.404 265.988ZM190.316 277.967 195.469 285.548 193.574 286.837 188.421 279.255ZM199.334 291.234 204.487 298.816 202.592 300.104 197.439 292.523ZM208.352 304.502 213.504 312.083 211.609 313.371 206.456 305.79ZM217.369 317.769 222.522 325.35 220.627 326.638 215.474 319.057ZM226.387 331.036 231.54 338.617 229.644 339.906 224.491 332.324ZM235.404 344.303 240.557 351.884 238.662 353.173 233.509 345.591ZM244.422 357.57 249.575 365.152 247.679 366.44 242.526 358.859ZM253.439 370.838 258.592 378.419 256.697 379.707 251.544 372.126ZM262.457 384.105 267.61 391.686 265.715 392.974 260.562 385.393ZM271.474 397.372 276.627 404.953 274.732 406.242 269.579 398.66ZM280.492 410.639 285.645 418.221 283.75 419.509 278.597 411.927ZM289.51 423.906 294.663 431.488 292.767 432.776 287.614 425.195ZM298.527 437.174 303.68 444.755 301.785 446.043 296.632 438.462ZM307.545 450.441 312.698 458.022 310.802 459.31 305.649 451.729ZM316.562 463.708 321.715 471.289 319.82 472.578 314.667 464.996ZM325.58 476.975 330.733 484.557 328.837 485.845 323.685 478.264ZM334.598 490.243 339.75 497.824 337.855 499.112 332.702 491.531ZM343.615 503.51 348.768 511.091 346.873 512.379 341.72 504.798ZM352.633 516.777 357.786 524.358 355.89 525.646 350.737 518.065ZM361.65 530.044 366.803 537.625 364.908 538.914 359.755 531.332ZM370.668 543.311 375.821 550.893 373.925 552.181 368.772 544.599ZM379.685 556.578 384.838 564.16 382.943 565.448 377.79 557.867ZM388.703 569.846 393.856 577.427 391.96 578.715 386.808 571.134ZM397.72 583.113 402.873 590.694 400.978 591.982 395.825 584.401ZM406.738 596.38 411.891 603.961 409.996 605.249 404.843 597.668ZM415.756 609.647 418.633 613.881 416.738 615.169 413.86 610.935ZM416.65 582.705 418.977 616.426 388.479 601.853C387.908 601.58 387.666 600.896 387.939 600.325 388.212 599.754 388.896 599.512 389.467 599.785L418.193 613.511 416.556 614.624 414.364 582.862C414.321 582.231 414.797 581.684 415.428 581.64 416.06 581.597 416.607 582.073 416.65 582.705Z" transform="matrix(1 0 0 -1 1220 1186.42)"/><path d="M1.0131-0.535311 5.29559 7.56951 3.26938 8.64013-1.0131 0.535311ZM8.50745 13.6481 12.7899 21.7529 10.7637 22.8236 6.48125 14.7187ZM16.0018 27.8316 20.2843 35.9364 18.2581 37.007 13.9756 28.9022ZM23.4962 42.015 27.7786 50.1198 25.7524 51.1904 21.47 43.0856ZM30.9905 56.1984 35.273 64.3032 33.2468 65.3739 28.9643 57.269ZM38.4849 70.3819 42.7674 78.4867 40.7412 79.5573 36.4587 71.4525ZM45.9792 84.5653 50.2617 92.6701 48.2355 93.7407 43.953 85.6359ZM53.4736 98.7487 57.7561 106.854 55.7299 107.924 51.4474 99.8193ZM60.9679 112.932 65.2504 121.037 63.2242 122.108 58.9417 114.003ZM68.4623 127.116 72.7448 135.22 70.7186 136.291 66.4361 128.186ZM75.9566 141.299 80.2391 149.404 78.2129 150.474 73.9304 142.37ZM83.451 155.482 87.7335 163.587 85.7073 164.658 81.4248 156.553ZM90.9453 169.666 95.2278 177.771 93.2016 178.841 88.9191 170.736ZM98.4397 183.849 102.722 191.954 100.696 193.025 96.4135 184.92ZM105.934 198.033 110.217 206.138 108.19 207.208 103.908 199.103ZM113.428 212.216 117.711 220.321 115.685 221.392 111.402 213.287ZM120.923 226.4 125.205 234.504 123.179 235.575 118.897 227.47ZM128.417 240.583 132.7 248.688 130.673 249.758 126.391 241.654ZM135.911 254.766 140.194 262.871 138.168 263.942 133.885 255.837ZM143.406 268.95 147.688 277.055 145.662 278.125 141.38 270.021ZM150.9 283.133 155.183 291.238 153.156 292.309 148.874 284.204ZM158.394 297.317 162.677 305.422 160.651 306.492 156.368 298.387ZM165.889 311.5 170.171 319.605 168.145 320.676 163.863 312.571ZM173.383 325.684 177.666 333.788 175.639 334.859 171.357 326.754ZM180.878 339.867 185.16 347.972 183.134 349.042 178.851 340.938ZM188.372 354.05 192.654 362.155 190.628 363.226 186.346 355.121ZM195.866 368.234 200.149 376.339 198.123 377.409 193.84 369.305ZM203.361 382.417 207.643 390.522 205.617 391.593 201.334 383.488ZM210.855 396.601 215.137 404.706 213.111 405.776 208.829 397.671ZM218.349 410.784 222.632 418.889 220.606 419.96 216.323 411.855ZM225.844 424.968 230.126 433.072 228.1 434.143 223.817 426.038ZM233.338 439.151 237.62 447.256 235.594 448.327 231.312 440.222ZM240.832 453.335 245.115 461.439 243.089 462.51 238.806 454.405ZM248.327 467.518 252.609 475.623 250.583 476.693 246.301 468.589ZM255.821 481.701 260.104 489.806 258.077 490.877 253.795 482.772ZM263.315 495.885 267.598 503.99 265.572 505.06 261.289 496.955ZM270.81 510.068 275.092 518.173 273.066 519.244 268.784 511.139ZM278.304 524.252 282.587 532.357 280.56 533.427 276.278 525.322ZM285.799 538.435 290.081 546.54 288.055 547.611 283.772 539.506ZM293.293 552.619 297.575 560.723 295.549 561.794 291.267 553.689ZM300.787 566.802 305.07 574.907 303.044 575.977 298.761 567.873ZM308.282 580.985 312.564 589.09 310.538 590.161 306.255 582.056ZM315.776 595.169 320.058 603.274 318.032 604.344 313.75 596.239ZM323.27 609.352 327.553 617.457 325.527 618.528 321.244 610.423ZM330.765 623.536 335.047 631.641 333.021 632.711 328.738 624.606ZM338.259 637.719 342.542 645.824 340.515 646.895 336.233 638.79ZM345.753 651.903 350.036 660.007 348.01 661.078 343.727 652.973ZM353.248 666.086 357.53 674.191 355.504 675.261 351.222 667.157ZM360.742 680.269 365.025 688.374 362.998 689.445 358.716 681.34ZM368.236 694.453 372.519 702.558 370.493 703.628 366.21 695.523ZM375.731 708.636 380.013 716.741 377.987 717.812 373.705 709.707ZM383.225 722.82 387.508 730.925 385.481 731.995 381.199 723.89ZM390.719 737.003 395.002 745.108 392.976 746.179 388.693 738.074ZM398.235 717.224 396.817 750.995 368.118 733.137C367.581 732.803 367.416 732.096 367.751 731.559 368.085 731.022 368.791 730.857 369.329 731.191L396.36 748.012 394.609 748.936 395.945 717.128C395.972 716.495 396.506 716.004 397.138 716.031 397.771 716.057 398.262 716.591 398.235 717.224Z" transform="matrix(1 0 0 -1 1242 1310.99)"/><path d="M0.997266-0.564264 5.51138 7.41387 3.51685 8.54239-0.997266 0.564264ZM8.89697 13.3975 13.4111 21.3756 11.4165 22.5041 6.90243 14.526ZM16.7967 27.3592 21.3108 35.3373 19.3162 36.4658 14.8021 28.4877ZM24.6964 41.3209 29.2105 49.299 27.2159 50.4276 22.7018 42.4494ZM32.5961 55.2826 37.1102 63.2608 35.1156 64.3893 30.6015 56.4112ZM40.4958 69.2444 45.0099 77.2225 43.0153 78.351 38.5012 70.3729ZM48.3955 83.2061 52.9096 91.1842 50.9151 92.3128 46.4009 84.3346ZM56.2952 97.1678 60.8093 105.146 58.8148 106.274 54.3006 98.2963ZM64.1949 111.13 68.709 119.108 66.7145 120.236 62.2003 112.258ZM72.0946 125.091 76.6087 133.069 74.6142 134.198 70.1 126.22ZM79.9943 139.053 84.5084 147.031 82.5139 148.16 77.9997 140.182ZM87.894 153.015 92.4081 160.993 90.4136 162.121 85.8995 154.143ZM95.7937 166.976 100.308 174.955 98.3133 176.083 93.7991 168.105ZM103.693 180.938 108.207 188.916 106.213 190.045 101.699 182.067ZM111.593 194.9 116.107 202.878 114.113 204.007 109.599 196.028ZM119.493 208.862 124.007 216.84 122.012 217.968 117.498 209.99ZM127.392 222.823 131.907 230.802 129.912 231.93 125.398 223.952ZM135.292 236.785 139.806 244.763 137.812 245.892 133.298 237.914ZM143.192 250.747 147.706 258.725 145.711 259.853 141.197 251.875ZM151.092 264.709 155.606 272.687 153.611 273.815 149.097 265.837ZM158.991 278.67 163.505 286.648 161.511 287.777 156.997 279.799ZM166.891 292.632 171.405 300.61 169.411 301.739 164.896 293.761ZM174.791 306.594 179.305 314.572 177.31 315.7 172.796 307.722ZM182.69 320.555 187.204 328.534 185.21 329.662 180.696 321.684ZM190.59 334.517 195.104 342.495 193.11 343.624 188.596 335.646ZM198.49 348.479 203.004 356.457 201.009 357.586 196.495 349.607ZM206.389 362.441 210.904 370.419 208.909 371.547 204.395 363.569ZM214.289 376.402 218.803 384.381 216.809 385.509 212.295 377.531ZM222.189 390.364 226.703 398.342 224.708 399.471 220.194 391.493ZM230.088 404.326 234.603 412.304 232.608 413.432 228.094 405.454ZM237.988 418.288 242.502 426.266 240.508 427.394 235.994 419.416ZM245.888 432.249 250.402 440.227 248.407 441.356 243.893 433.378ZM253.788 446.211 258.302 454.189 256.307 455.318 251.793 447.339ZM261.687 460.173 266.201 468.151 264.207 469.279 259.693 461.301ZM269.587 474.134 274.101 482.112 272.107 483.241 267.592 475.263ZM277.487 488.096 282.001 496.074 280.006 497.203 275.492 489.225ZM285.386 502.058 289.9 510.036 287.906 511.164 283.392 503.186ZM293.286 516.019 297.8 523.998 295.806 525.126 291.292 517.148ZM301.186 529.981 305.7 537.959 303.705 539.088 299.191 531.11ZM309.085 543.943 313.6 551.921 311.605 553.05 307.091 545.071ZM316.985 557.905 321.499 565.883 319.505 567.011 314.991 559.033ZM324.885 571.866 329.399 579.845 327.404 580.973 322.89 572.995ZM332.785 585.828 337.299 593.806 335.304 594.935 330.79 586.957ZM340.684 599.79 345.198 607.768 343.204 608.896 338.69 600.918ZM348.584 613.752 353.098 621.73 351.104 622.858 346.589 614.88ZM356.484 627.713 360.998 635.691 359.003 636.82 354.489 628.842ZM364.383 641.675 368.898 649.653 366.903 650.782 362.389 642.804ZM372.283 655.637 376.797 663.615 374.803 664.743 370.289 656.765ZM380.183 669.599 384.697 677.577 382.702 678.705 378.188 670.727ZM388.083 683.56 392.597 691.538 390.602 692.667 386.088 684.689ZM395.982 697.522 400.496 705.5 398.502 706.629 393.988 698.651ZM403.882 711.484 408.396 719.462 406.401 720.59 401.887 712.612ZM411.782 725.445 416.296 733.424 414.301 734.552 409.787 726.574ZM419.681 739.407 424.195 747.385 422.201 748.514 417.687 740.536ZM427.581 753.369 429.953 757.56 427.958 758.689 425.586 754.497ZM430.502 726.274 430.057 760.073 400.856 743.049C400.309 742.73 400.125 742.029 400.443 741.482 400.762 740.935 401.464 740.751 402.01 741.069L429.515 757.103 427.792 758.078 428.211 726.244C428.219 725.611 428.739 725.105 429.371 725.113 430.004 725.122 430.51 725.641 430.502 726.274Z" transform="matrix(1 0 0 -1 1220 1192.07)"/><path d="M0.994338-0.569408 5.54961 7.3853 3.56093 8.52411-0.994338 0.569408ZM8.96606 13.3513 13.5213 21.306 11.5326 22.4448 6.97738 14.4901ZM16.9378 27.2721 21.493 35.2268 19.5044 36.3656 14.9491 28.4109ZM24.9095 41.1928 29.4648 49.1475 27.4761 50.2863 22.9208 42.3316ZM32.8812 55.1135 37.4365 63.0682 35.4478 64.207 30.8925 56.2523ZM40.8529 69.0343 45.4082 76.989 43.4195 78.1278 38.8643 70.1731ZM48.8246 82.955 53.3799 90.9097 51.3912 92.0485 46.836 84.0938ZM56.7964 96.8757 61.3516 104.83 59.363 105.969 54.8077 98.0145ZM64.7681 110.796 69.3233 118.751 67.3347 119.89 62.7794 111.935ZM72.7398 124.717 77.2951 132.672 75.3064 133.811 70.7511 125.856ZM80.7115 138.638 85.2668 146.593 83.2781 147.731 78.7228 139.777ZM88.6832 152.559 93.2385 160.513 91.2498 161.652 86.6946 153.697ZM96.655 166.479 101.21 174.434 99.2215 175.573 94.6663 167.618ZM104.627 180.4 109.182 188.355 107.193 189.494 102.638 181.539ZM112.598 194.321 117.154 202.276 115.165 203.414 110.61 195.46ZM120.57 208.242 125.125 216.196 123.137 217.335 118.581 209.38ZM128.542 222.162 133.097 230.117 131.108 231.256 126.553 223.301ZM136.514 236.083 141.069 244.038 139.08 245.176 134.525 237.222ZM144.485 250.004 149.041 257.958 147.052 259.097 142.497 251.143ZM152.457 263.924 157.012 271.879 155.024 273.018 150.468 265.063ZM160.429 277.845 164.984 285.8 162.995 286.939 158.44 278.984ZM168.4 291.766 172.956 299.721 170.967 300.859 166.412 292.905ZM176.372 305.687 180.927 313.641 178.939 314.78 174.383 306.825ZM184.344 319.607 188.899 327.562 186.91 328.701 182.355 320.746ZM192.316 333.528 196.871 341.483 194.882 342.622 190.327 334.667ZM200.287 347.449 204.843 355.403 202.854 356.542 198.299 348.588ZM208.259 361.369 212.814 369.324 210.826 370.463 206.27 362.508ZM216.231 375.29 220.786 383.245 218.797 384.384 214.242 376.429ZM224.202 389.211 228.758 397.166 226.769 398.304 222.214 390.35ZM232.174 403.132 236.73 411.086 234.741 412.225 230.186 404.271ZM240.146 417.052 244.701 425.007 242.713 426.146 238.157 418.191ZM248.118 430.973 252.673 438.928 250.684 440.067 246.129 432.112ZM256.089 444.894 260.645 452.849 258.656 453.987 254.101 446.033ZM264.061 458.815 268.616 466.769 266.628 467.908 262.072 459.954ZM272.033 472.735 276.588 480.69 274.599 481.829 270.044 473.874ZM280.005 486.656 284.56 494.611 282.571 495.75 278.016 487.795ZM287.976 500.577 292.532 508.532 290.543 509.67 285.988 501.716ZM295.948 514.498 300.503 522.452 298.515 523.591 293.959 515.636ZM303.92 528.418 308.475 536.373 306.486 537.512 301.931 529.557ZM311.891 542.339 316.447 550.294 314.458 551.433 309.903 543.478ZM319.863 556.26 324.418 564.215 322.43 565.353 317.874 557.399ZM327.835 570.181 332.39 578.135 330.401 579.274 325.846 571.32ZM335.807 584.101 340.362 592.056 338.373 593.195 333.818 585.24ZM343.778 598.022 348.334 605.977 346.345 607.116 341.79 599.161ZM351.75 611.943 356.305 619.898 354.317 621.036 349.761 613.082ZM359.722 625.864 364.277 633.818 362.288 634.957 357.733 627.002ZM367.693 639.784 372.249 647.739 370.26 648.878 365.705 640.923ZM375.665 653.705 380.22 661.66 378.232 662.799 373.676 654.844ZM383.637 667.626 388.192 675.581 386.203 676.719 381.648 668.765ZM391.609 681.547 396.164 689.501 394.175 690.64 389.62 682.685ZM399.58 695.467 404.136 703.422 402.147 704.561 397.592 696.606ZM407.552 709.388 412.107 717.343 410.119 718.481 405.563 710.527ZM415.524 723.309 420.079 731.263 418.09 732.402 413.535 724.448ZM423.495 737.229 428.051 745.184 426.062 746.323 421.507 738.368ZM430.328 717.195 430.058 750.995 400.769 734.122C400.221 733.807 400.032 733.106 400.348 732.558 400.664 732.009 401.365 731.821 401.913 732.137L429.5 748.029 427.782 749.012 428.036 717.177C428.042 716.544 428.559 716.035 429.191 716.04 429.824 716.045 430.333 716.562 430.328 717.195Z" transform="matrix(1 0 0 -1 1220 1067.99)"/><path d="M0.952287-0.637247 6.05026 6.98105 4.14569 8.25554-0.952287 0.637247ZM9.87374 12.6948 14.9717 20.3131 13.0671 21.5876 7.96917 13.9693ZM18.7952 26.0268 23.8932 33.6451 21.9886 34.9196 16.8906 27.3013ZM27.7166 39.3588 32.8146 46.9771 30.91 48.2516 25.8121 40.6333ZM36.6381 52.6908 41.7361 60.3091 39.8315 61.5836 34.7335 53.9653ZM45.5596 66.0229 50.6575 73.6411 48.753 74.9156 43.655 67.2973ZM54.481 79.3549 59.579 86.9732 57.6744 88.2477 52.5764 80.6294ZM63.4025 92.6869 68.5004 100.305 66.5959 101.58 61.4979 93.9614ZM72.3239 106.019 77.4219 113.637 75.5173 114.912 70.4193 107.293ZM81.2454 119.351 86.3433 126.969 84.4388 128.244 79.3408 120.625ZM90.1668 132.683 95.2648 140.301 93.3602 141.576 88.2622 133.957ZM99.0883 146.015 104.186 153.633 102.282 154.908 97.1837 147.289ZM108.01 159.347 113.108 166.965 111.203 168.24 106.105 160.621ZM116.931 172.679 122.029 180.297 120.125 181.572 115.027 173.953ZM125.853 186.011 130.951 193.629 129.046 194.904 123.948 187.286ZM134.774 199.343 139.872 206.961 137.967 208.236 132.87 200.618ZM143.696 212.675 148.794 220.293 146.889 221.568 141.791 213.95ZM152.617 226.007 157.715 233.625 155.81 234.9 150.712 227.282ZM161.538 239.339 166.636 246.957 164.732 248.232 159.634 240.614ZM170.46 252.671 175.558 260.289 173.653 261.564 168.555 253.946ZM179.381 266.003 184.479 273.621 182.575 274.896 177.477 267.278ZM188.303 279.335 193.401 286.953 191.496 288.228 186.398 280.61ZM197.224 292.667 202.322 300.285 200.418 301.56 195.32 293.942ZM206.146 305.999 211.244 313.617 209.339 314.892 204.241 307.274ZM215.067 319.331 220.165 326.95 218.261 328.224 213.163 320.606ZM223.989 332.663 229.087 340.282 227.182 341.556 222.084 333.938ZM232.91 345.995 238.008 353.614 236.103 354.888 231.005 347.27ZM241.831 359.327 246.929 366.946 245.025 368.22 239.927 360.602ZM250.753 372.659 255.851 380.278 253.946 381.552 248.848 373.934ZM259.674 385.991 264.772 393.61 262.868 394.884 257.77 387.266ZM268.596 399.323 273.694 406.942 271.789 408.216 266.691 400.598ZM277.517 412.655 282.615 420.274 280.711 421.548 275.613 413.93ZM286.439 425.987 291.537 433.606 289.632 434.88 284.534 427.262ZM295.36 439.319 300.458 446.938 298.554 448.212 293.456 440.594ZM304.282 452.652 309.38 460.27 307.475 461.544 302.377 453.926ZM313.203 465.984 318.301 473.602 316.396 474.876 311.298 467.258ZM322.124 479.316 327.222 486.934 325.318 488.208 320.22 480.59ZM331.046 492.648 336.144 500.266 334.239 501.54 329.141 493.922ZM339.967 505.98 345.065 513.598 343.161 514.872 338.063 507.254ZM348.889 519.312 353.987 526.93 352.082 528.204 346.984 520.586ZM357.81 532.644 362.908 540.262 361.004 541.536 355.906 533.918ZM366.732 545.976 371.83 553.594 369.925 554.868 364.827 547.25ZM375.653 559.308 380.751 566.926 378.847 568.2 373.749 560.582ZM384.575 572.64 389.673 580.258 387.768 581.532 382.67 573.914ZM393.496 585.972 398.594 593.59 396.69 594.864 391.592 587.246ZM402.418 599.304 407.516 606.922 405.611 608.196 400.513 600.578ZM411.339 612.636 416.437 620.254 414.533 621.528 409.434 613.91ZM416.894 592.374 418.978 626.111 388.585 611.318C388.016 611.041 387.78 610.355 388.057 609.786 388.334 609.217 389.019 608.981 389.588 609.258L418.214 623.191 416.569 624.292 414.607 592.515C414.568 591.884 415.048 591.34 415.68 591.301 416.312 591.262 416.855 591.742 416.894 592.374Z" transform="matrix(1 0 0 -1 1231 943.106)"/><path d="M0.885934-0.726673 6.69932 6.3608 4.92745 7.81415-0.885934 0.726673ZM11.0594 11.6764 16.8727 18.7639 15.1009 20.2172 9.28749 13.1298ZM21.2328 24.0795 27.0462 31.167 25.2743 32.6203 19.4609 25.5328ZM31.4062 36.4826 37.2196 43.57 35.4477 45.0234 29.6343 37.9359ZM41.5796 48.8857 47.393 55.9731 45.6212 57.4265 39.8078 50.339ZM51.7531 61.2887 57.5665 68.3762 55.7946 69.8296 49.9812 62.7421ZM61.9265 73.6918 67.7399 80.7793 65.968 82.2326 60.1546 75.1452ZM72.0999 86.0949 77.9133 93.1824 76.1415 94.6357 70.3281 87.5482ZM82.2734 98.498 88.0868 105.585 86.3149 107.039 80.5015 99.9513ZM92.4468 110.901 98.2602 117.989 96.4883 119.442 90.6749 112.354ZM102.62 123.304 108.434 130.392 106.662 131.845 100.848 124.757ZM112.794 135.707 118.607 142.795 116.835 144.248 111.022 137.161ZM122.967 148.11 128.78 155.198 127.009 156.651 121.195 149.564ZM133.141 160.513 138.954 167.601 137.182 169.054 131.369 161.967ZM143.314 172.916 149.127 180.004 147.355 181.457 141.542 174.37ZM153.487 185.32 159.301 192.407 157.529 193.86 151.716 186.773ZM163.661 197.723 169.474 204.81 167.702 206.263 161.889 199.176ZM173.834 210.126 179.648 217.213 177.876 218.667 172.062 211.579ZM184.008 222.529 189.821 229.616 188.049 231.07 182.236 223.982ZM194.181 234.932 199.994 242.019 198.223 243.473 192.409 236.385ZM204.355 247.335 210.168 254.422 208.396 255.876 202.583 248.788ZM214.528 259.738 220.341 266.826 218.569 268.279 212.756 261.191ZM224.701 272.141 230.515 279.229 228.743 280.682 222.93 273.594ZM234.875 284.544 240.688 291.632 238.916 293.085 233.103 285.998ZM245.048 296.947 250.862 304.035 249.09 305.488 243.276 298.401ZM255.222 309.35 261.035 316.438 259.263 317.891 253.45 310.804ZM265.395 321.753 271.208 328.841 269.437 330.294 263.623 323.207ZM275.568 334.157 281.382 341.244 279.61 342.697 273.797 335.61ZM285.742 346.56 291.555 353.647 289.783 355.1 283.97 348.013ZM295.915 358.963 301.729 366.05 299.957 367.504 294.143 360.416ZM306.089 371.366 311.902 378.453 310.13 379.907 304.317 372.819ZM316.262 383.769 322.076 390.856 320.304 392.31 314.49 385.222ZM326.436 396.172 332.249 403.259 330.477 404.713 324.664 397.625ZM336.609 408.575 342.422 415.663 340.651 417.116 334.837 410.028ZM346.782 420.978 352.596 428.066 350.824 429.519 345.011 422.431ZM356.956 433.381 362.769 440.469 360.997 441.922 355.184 434.835ZM367.129 445.784 372.943 452.872 371.171 454.325 365.357 447.238ZM377.303 458.187 383.116 465.275 381.344 466.728 375.531 459.641ZM387.476 470.59 393.29 477.678 391.518 479.131 385.704 472.044ZM397.65 482.993 403.463 490.081 401.691 491.534 395.878 484.447ZM407.823 495.397 412.88 501.561 411.108 503.015 406.051 496.85ZM408.089 470.672 413.437 504.048 381.753 492.274C381.159 492.054 380.857 491.394 381.078 490.801 381.298 490.208 381.957 489.906 382.551 490.126L412.394 501.215 410.863 502.471 405.826 471.035C405.726 470.41 406.152 469.822 406.777 469.722 407.401 469.622 407.989 470.047 408.089 470.672Z" transform="matrix(1 0 0 -1 1237 936.044)"/><path d="M0.868309-0.747645 6.84947 6.19883 5.11285 7.69412-0.868309 0.747645ZM11.3353 11.4087 17.3165 18.3552 15.5799 19.8504 9.59872 12.904ZM21.8024 23.565 27.7835 30.5115 26.0469 32.0068 20.0658 25.0603ZM32.2694 35.7213 38.2506 42.6678 36.5139 44.1631 30.5328 37.2166ZM42.7364 47.8777 48.7176 54.8242 46.981 56.3194 40.9998 49.373ZM53.2035 60.034 59.1846 66.9805 57.448 68.4758 51.4668 61.5293ZM63.6705 72.1903 69.6516 79.1368 67.915 80.6321 61.9339 73.6856ZM74.1375 84.3467 80.1187 91.2931 78.3821 92.7884 72.4009 85.8419ZM84.6045 96.503 90.5857 103.449 88.8491 104.945 82.8679 97.9983ZM95.0716 108.659 101.053 115.606 99.3161 117.101 93.335 110.155ZM105.539 120.816 111.52 127.762 109.783 129.257 103.802 122.311ZM116.006 132.972 121.987 139.918 120.25 141.414 114.269 134.467ZM126.473 145.128 132.454 152.075 130.717 153.57 124.736 146.624ZM136.94 157.285 142.921 164.231 141.184 165.726 135.203 158.78ZM147.407 169.441 153.388 176.387 151.651 177.883 145.67 170.936ZM157.874 181.597 163.855 188.544 162.118 190.039 156.137 183.093ZM168.341 193.754 174.322 200.7 172.585 202.195 166.604 195.249ZM178.808 205.91 184.789 212.856 183.052 214.352 177.071 207.405ZM189.275 218.066 195.256 225.013 193.519 226.508 187.538 219.562ZM199.742 230.223 205.723 237.169 203.986 238.664 198.005 231.718ZM210.209 242.379 216.19 249.326 214.453 250.821 208.472 243.874ZM220.676 254.535 226.657 261.482 224.921 262.977 218.939 256.031ZM231.143 266.692 237.124 273.638 235.388 275.133 229.406 268.187ZM241.61 278.848 247.591 285.794 245.855 287.29 239.873 280.343ZM252.077 291.004 258.058 297.951 256.322 299.446 250.34 292.5ZM262.544 303.161 268.525 310.107 266.789 311.602 260.807 304.656ZM273.011 315.317 278.992 322.263 277.256 323.759 271.274 316.812ZM283.478 327.473 289.459 334.42 287.723 335.915 281.742 328.969ZM293.945 339.63 299.926 346.576 298.19 348.071 292.209 341.125ZM304.412 351.786 310.393 358.732 308.657 360.228 302.676 353.281ZM314.879 363.942 320.86 370.889 319.124 372.384 313.143 365.438ZM325.346 376.099 331.327 383.045 329.591 384.54 323.61 377.594ZM335.813 388.255 341.794 395.201 340.058 396.697 334.077 389.75ZM346.28 400.411 352.261 407.358 350.525 408.853 344.544 401.906ZM356.747 412.568 362.728 419.514 360.992 421.009 355.011 414.063ZM367.214 424.724 373.196 431.67 371.459 433.166 365.478 426.219ZM377.681 436.88 383.663 443.827 381.926 445.322 375.945 438.375ZM388.148 449.037 394.13 455.983 392.393 457.478 386.412 450.532ZM398.615 461.193 404.597 468.139 402.86 469.635 396.879 462.688ZM409.083 473.349 415.064 480.296 413.327 481.791 407.346 474.844ZM419.55 485.506 423.897 490.555 422.161 492.05 417.813 487.001ZM418.375 459.795 424.519 493.033 392.562 482.02C391.964 481.814 391.646 481.162 391.852 480.564 392.058 479.965 392.711 479.647 393.309 479.854L423.409 490.227 421.909 491.518 416.122 460.212C416.007 459.589 416.418 458.992 417.04 458.877 417.663 458.762 418.26 459.173 418.375 459.795Z" transform="matrix(1 0 0 -1 1231 1063.03)"/><path d="M0.734459-0.87949 7.77038 4.99618 6.30146 6.75517-0.734459 0.87949ZM13.0473 9.40294 20.0833 15.2786 18.6143 17.0376 11.5784 11.1619ZM25.3602 19.6854 32.3961 25.561 30.9272 27.32 23.8913 21.4444ZM37.6731 29.9678 44.709 35.8435 43.2401 37.6025 36.2041 31.7268ZM49.9859 40.2502 57.0219 46.1259 55.5529 47.8849 48.517 42.0092ZM62.2988 50.5327 69.3347 56.4083 67.8658 58.1673 60.8299 52.2916ZM74.6117 60.8151 81.6476 66.6908 80.1787 68.4498 73.1427 62.5741ZM86.9245 71.0975 93.9605 76.9732 92.4915 78.7322 85.4556 72.8565ZM99.2374 81.38 106.273 87.2556 104.804 89.0146 97.7685 83.1389ZM111.55 91.6624 118.586 97.5381 117.117 99.2971 110.081 93.4214ZM123.863 101.945 130.899 107.821 129.43 109.579 122.394 103.704ZM136.176 112.227 143.212 118.103 141.743 119.862 134.707 113.986ZM148.489 122.51 155.525 128.385 154.056 130.144 147.02 124.269ZM160.802 132.792 167.838 138.668 166.369 140.427 159.333 134.551ZM173.115 143.075 180.151 148.95 178.682 150.709 171.646 144.834ZM185.427 153.357 192.463 159.233 190.994 160.992 183.959 155.116ZM197.74 163.639 204.776 169.515 203.307 171.274 196.271 165.398ZM210.053 173.922 217.089 179.798 215.62 181.557 208.584 175.681ZM222.366 184.204 229.402 190.08 227.933 191.839 220.897 185.963ZM234.679 194.487 241.715 200.362 240.246 202.121 233.21 196.246ZM246.992 204.769 254.028 210.645 252.559 212.404 245.523 206.528ZM259.305 215.052 266.341 220.927 264.872 222.686 257.836 216.811ZM271.618 225.334 278.653 231.21 277.185 232.969 270.149 227.093ZM283.93 235.616 290.966 241.492 289.497 243.251 282.461 237.375ZM296.243 245.899 303.279 251.775 301.81 253.534 294.774 247.658ZM308.556 256.181 315.592 262.057 314.123 263.816 307.087 257.94ZM320.869 266.464 327.905 272.339 326.436 274.098 319.4 268.223ZM333.182 276.746 340.218 282.622 338.749 284.381 331.713 278.505ZM345.495 287.029 352.531 292.904 351.062 294.663 344.026 288.788ZM357.808 297.311 364.844 303.187 363.375 304.946 356.339 299.07ZM370.12 307.593 377.156 313.469 375.687 315.228 368.652 309.352ZM382.433 317.876 389.469 323.752 388 325.511 380.964 319.635ZM394.746 328.158 401.782 334.034 400.313 335.793 393.277 329.917ZM407.059 338.441 414.095 344.316 412.626 346.075 405.59 340.2ZM419.372 348.723 426.408 354.599 424.939 356.358 417.903 350.482ZM431.685 359.006 438.721 364.881 437.252 366.64 430.216 360.765ZM443.998 369.288 451.034 375.164 449.565 376.923 442.529 371.047ZM442.15 347.049 453.644 378.836 420.317 373.195C419.693 373.089 419.273 372.498 419.378 371.874 419.484 371.25 420.076 370.83 420.699 370.935L452.09 376.249 450.821 377.768 439.995 347.829C439.78 347.234 440.088 346.577 440.683 346.362 441.278 346.146 441.935 346.454 442.15 347.049Z" transform="matrix(1 0 0 -1 1208 1076.83)"/><path d="M0.883378-0.729779 6.72161 6.33724 4.95486 7.7968-0.883378 0.729779ZM11.1003 11.6375 16.9385 18.7045 15.1718 20.1641 9.33354 13.0971ZM21.3172 24.0048 27.1554 31.0718 25.3887 32.5314 19.5504 25.4644ZM31.5341 36.3721 37.3723 43.4391 35.6056 44.8987 29.7674 37.8316ZM41.751 48.7394 47.5893 55.8064 45.8225 57.2659 39.9843 50.1989ZM51.9679 61.1066 57.8062 68.1737 56.0394 69.6332 50.2012 62.5662ZM62.1849 73.4739 68.0231 80.541 66.2563 82.0005 60.4181 74.9335ZM72.4018 85.8412 78.24 92.9082 76.4732 94.3678 70.635 87.3008ZM82.6187 98.2085 88.4569 105.276 86.6902 106.735 80.8519 99.6681ZM92.8356 110.576 98.6738 117.643 96.9071 119.102 91.0688 112.035ZM103.053 122.943 108.891 130.01 107.124 131.47 101.286 124.403ZM113.269 135.31 119.108 142.377 117.341 143.837 111.503 136.77ZM123.486 147.678 129.325 154.745 127.558 156.204 121.72 149.137ZM133.703 160.045 139.541 167.112 137.775 168.572 131.936 161.505ZM143.92 172.412 149.758 179.479 147.992 180.939 142.153 173.872ZM154.137 184.78 159.975 191.847 158.209 193.306 152.37 186.239ZM164.354 197.147 170.192 204.214 168.425 205.673 162.587 198.606ZM174.571 209.514 180.409 216.581 178.642 218.041 172.804 210.974ZM184.788 221.881 190.626 228.948 188.859 230.408 183.021 223.341ZM195.005 234.249 200.843 241.316 199.076 242.775 193.238 235.708ZM205.222 246.616 211.06 253.683 209.293 255.143 203.455 248.075ZM215.439 258.983 221.277 266.05 219.51 267.51 213.672 260.443ZM225.655 271.351 231.494 278.418 229.727 279.877 223.889 272.81ZM235.872 283.718 241.711 290.785 239.944 292.244 234.106 285.177ZM246.089 296.085 251.928 303.152 250.161 304.612 244.323 297.545ZM256.306 308.452 262.144 315.519 260.378 316.979 254.539 309.912ZM266.523 320.82 272.361 327.887 270.595 329.346 264.756 322.279ZM276.74 333.187 282.578 340.254 280.812 341.714 274.973 334.646ZM286.957 345.554 292.795 352.621 291.028 354.081 285.19 347.014ZM297.174 357.922 303.012 364.989 301.245 366.448 295.407 359.381ZM307.391 370.289 313.229 377.356 311.462 378.815 305.624 371.748ZM317.608 382.656 323.446 389.723 321.679 391.183 315.841 384.116ZM327.825 395.023 333.663 402.09 331.896 403.55 326.058 396.483ZM338.042 407.391 343.88 414.458 342.113 415.917 336.275 408.85ZM348.258 419.758 354.097 426.825 352.33 428.285 346.492 421.217ZM358.475 432.125 364.314 439.192 362.547 440.652 356.709 433.585ZM368.692 444.493 374.53 451.56 372.764 453.019 366.926 445.952ZM378.909 456.86 384.747 463.927 382.981 465.386 377.142 458.319ZM389.126 469.227 394.964 476.294 393.198 477.754 387.359 470.687ZM399.343 481.594 405.181 488.661 403.414 490.121 397.576 483.054ZM409.56 493.962 415.398 501.029 413.631 502.488 407.793 495.421ZM414.226 474.667 419.691 508.024 387.965 496.362C387.371 496.143 387.066 495.485 387.285 494.891 387.503 494.297 388.162 493.992 388.756 494.211L418.638 505.195 417.111 506.456 411.964 475.038C411.862 474.413 412.285 473.824 412.91 473.722 413.534 473.619 414.123 474.043 414.226 474.667Z" transform="matrix(1 0 0 -1 1225 819.02)"/><path d="M0.587104-0.983994 8.45905 3.71284 7.28484 5.68082-0.587104 0.983994ZM14.363 7.23546 22.235 11.9323 21.0608 13.9003 13.1888 9.20345ZM28.1389 15.4549 36.0109 20.1517 34.8367 22.1197 26.9647 17.4229ZM41.9148 23.6744 49.7868 28.3712 48.6126 30.3392 40.7406 25.6423ZM55.6907 31.8938 63.5627 36.5906 62.3885 38.5586 54.5165 33.8618ZM69.4667 40.1133 77.3386 44.8101 76.1644 46.7781 68.2924 42.0813ZM83.2426 48.3327 91.1145 53.0295 89.9403 54.9975 82.0684 50.3007ZM97.0185 56.5522 104.89 61.249 103.716 63.217 95.8443 58.5202ZM110.794 64.7716 118.666 69.4684 117.492 71.4364 109.62 66.7396ZM124.57 72.9911 132.442 77.6879 131.268 79.6559 123.396 74.9591ZM138.346 81.2105 146.218 85.9073 145.044 87.8753 137.172 83.1785ZM152.122 89.43 159.994 94.1268 158.82 96.0948 150.948 91.3979ZM165.898 97.6494 173.77 102.346 172.596 104.314 164.724 99.6174ZM179.674 105.869 187.546 110.566 186.372 112.534 178.5 107.837ZM193.45 114.088 201.322 118.785 200.148 120.753 192.276 116.056ZM207.226 122.308 215.098 127.005 213.923 128.973 206.052 124.276ZM221.002 130.527 228.874 135.224 227.699 137.192 219.827 132.495ZM234.778 138.747 242.649 143.444 241.475 145.412 233.603 140.715ZM248.553 146.966 256.425 151.663 255.251 153.631 247.379 148.934ZM262.329 155.186 270.201 159.882 269.027 161.85 261.155 157.154ZM276.105 163.405 283.977 168.102 282.803 170.07 274.931 165.373ZM289.881 171.625 297.753 176.321 296.579 178.289 288.707 173.593ZM303.657 179.844 311.529 184.541 310.355 186.509 302.483 181.812ZM317.433 188.063 325.305 192.76 324.131 194.728 316.259 190.031ZM331.209 196.283 339.081 200.98 337.907 202.948 330.035 198.251ZM344.985 204.502 352.857 209.199 351.683 211.167 343.811 206.47ZM358.761 212.722 366.633 217.419 365.458 219.387 357.587 214.69ZM372.537 220.941 380.409 225.638 379.234 227.606 371.362 222.909ZM386.313 229.161 394.185 233.858 393.01 235.826 385.138 231.129ZM400.089 237.38 407.96 242.077 406.786 244.045 398.914 239.348ZM413.864 245.6 421.736 250.296 420.562 252.264 412.69 247.568ZM427.64 253.819 428.695 254.448 427.521 256.416 426.466 255.787ZM413.713 227.011 430.059 256.596 396.26 256.262C395.627 256.256 395.119 255.738 395.125 255.105 395.131 254.472 395.649 253.965 396.282 253.971L428.118 254.285 427.103 255.985 411.707 228.119C411.401 227.565 411.602 226.868 412.156 226.562 412.71 226.256 413.407 226.457 413.713 227.011Z" transform="matrix(1 0 0 -1 1231 693.594)"/><path d="M0.781516-0.837954 7.48515 5.41418 5.92211 7.09008-0.781516 0.837954ZM12.5129 10.1033 19.2165 16.3554 17.6535 18.0313 10.9498 11.7792ZM24.2442 21.0445 30.9478 27.2966 29.3848 28.9725 22.6812 22.7204ZM35.9756 31.9857 42.6792 38.2379 41.1162 39.9138 34.4125 33.6616ZM47.7069 42.927 54.4105 49.1791 52.8475 50.855 46.1439 44.6029ZM59.4383 53.8682 66.1419 60.1203 64.5789 61.7962 57.8752 55.5441ZM71.1696 64.8094 77.8732 71.0616 76.3102 72.7375 69.6066 66.4853ZM82.901 75.7506 89.6046 82.0028 88.0415 83.6787 81.3379 77.4266ZM94.6323 86.6919 101.336 92.944 99.7729 94.6199 93.0693 88.3678ZM106.364 97.6331 113.067 103.885 111.504 105.561 104.801 99.309ZM118.095 108.574 124.799 114.826 123.236 116.502 116.532 110.25ZM129.826 119.516 136.53 125.768 134.967 127.444 128.263 121.191ZM141.558 130.457 148.261 136.709 146.698 138.385 139.995 132.133ZM153.289 141.398 159.993 147.65 158.43 149.326 151.726 143.074ZM165.02 152.339 171.724 158.591 170.161 160.267 163.457 154.015ZM176.752 163.28 183.455 169.533 181.892 171.209 175.189 164.956ZM188.483 174.222 195.187 180.474 193.624 182.15 186.92 175.898ZM200.214 185.163 206.918 191.415 205.355 193.091 198.651 186.839ZM211.946 196.104 218.649 202.356 217.086 204.032 210.383 197.78ZM223.677 207.045 230.381 213.298 228.818 214.973 222.114 208.721ZM235.409 217.987 242.112 224.239 240.549 225.915 233.845 219.663ZM247.14 228.928 253.843 235.18 252.28 236.856 245.577 230.604ZM258.871 239.869 265.575 246.121 264.012 247.797 257.308 241.545ZM270.603 250.81 277.306 257.062 275.743 258.738 269.04 252.486ZM282.334 261.751 289.038 268.004 287.474 269.68 280.771 263.427ZM294.065 272.693 300.769 278.945 299.206 280.621 292.502 274.369ZM305.797 283.634 312.5 289.886 310.937 291.562 304.234 285.31ZM317.528 294.575 324.232 300.827 322.669 302.503 315.965 296.251ZM329.259 305.516 335.963 311.769 334.4 313.444 327.696 307.192ZM340.991 316.458 347.694 322.71 346.131 324.386 339.428 318.134ZM352.722 327.399 359.426 333.651 357.863 335.327 351.159 329.075ZM364.453 338.34 371.157 344.592 369.594 346.268 362.89 340.016ZM376.185 349.281 382.888 355.534 381.325 357.209 374.622 350.957ZM387.916 360.223 394.62 366.475 393.057 368.151 386.353 361.898ZM399.647 371.164 406.351 377.416 404.788 379.092 398.084 372.84ZM411.379 382.105 411.844 382.539 410.281 384.215 409.816 383.781ZM402.991 352.56 412.727 384.929 379.759 377.47C379.141 377.331 378.754 376.717 378.894 376.1 379.033 375.483 379.647 375.096 380.264 375.235L411.316 382.26 409.966 383.708 400.797 353.22C400.614 352.614 400.958 351.975 401.564 351.793 402.17 351.611 402.809 351.954 402.991 352.56Z" transform="matrix(1 0 0 -1 1231 695.925)"/><path d="M0.56255-0.998234 8.54842 3.50217 7.42332 5.49864-0.56255 0.998234ZM14.5378 6.87747 22.5237 11.3779 21.3986 13.3743 13.4127 8.87394ZM28.5131 14.7532 36.499 19.2536 35.3739 21.25 27.388 16.7496ZM42.4884 22.6289 50.4743 27.1293 49.3491 29.1257 41.3633 24.6253ZM56.4637 30.5046 64.4495 35.005 63.3244 37.0014 55.3386 32.501ZM70.4389 38.3803 78.4248 42.8807 77.2997 44.8772 69.3138 40.3768ZM84.4142 46.256 92.4001 50.7564 91.275 52.7529 83.2891 48.2525ZM98.3895 54.1317 106.375 58.6321 105.25 60.6286 97.2644 56.1282ZM112.365 62.0074 120.351 66.5078 119.226 68.5043 111.24 64.0039ZM126.34 69.8831 134.326 74.3835 133.201 76.38 125.215 71.8796ZM140.315 77.7588 148.301 82.2592 147.176 84.2557 139.19 79.7553ZM154.291 85.6345 162.276 90.1349 161.151 92.1314 153.165 87.631ZM168.266 93.5102 176.252 98.0106 175.127 100.007 167.141 95.5067ZM182.241 101.386 190.227 105.886 189.102 107.883 181.116 103.382ZM196.216 109.262 204.202 113.762 203.077 115.758 195.091 111.258ZM210.192 117.137 218.178 121.638 217.053 123.634 209.067 119.134ZM224.167 125.013 232.153 129.513 231.028 131.51 223.042 127.009ZM238.142 132.889 246.128 137.389 245.003 139.386 237.017 134.885ZM252.118 140.764 260.103 145.265 258.978 147.261 250.992 142.761ZM266.093 148.64 274.079 153.141 272.954 155.137 264.968 150.637ZM280.068 156.516 288.054 161.016 286.929 163.013 278.943 158.512ZM294.043 164.392 302.029 168.892 300.904 170.888 292.918 166.388ZM308.019 172.267 316.005 176.768 314.879 178.764 306.894 174.264ZM321.994 180.143 329.98 184.643 328.855 186.64 320.869 182.139ZM335.969 188.019 343.955 192.519 342.83 194.516 334.844 190.015ZM349.944 195.894 357.93 200.395 356.805 202.391 348.819 197.891ZM363.92 203.77 371.906 208.27 370.781 210.267 362.795 205.766ZM377.895 211.646 385.881 216.146 384.756 218.143 376.77 213.642ZM391.87 219.521 399.856 224.022 398.731 226.018 390.745 221.518ZM405.846 227.397 413.831 231.898 412.706 233.894 404.721 229.394ZM401.193 206.54 418.267 235.712 384.469 236.215C383.836 236.225 383.316 235.72 383.306 235.087 383.297 234.454 383.802 233.934 384.435 233.924L416.268 233.45 415.297 235.175 399.215 207.698C398.895 207.152 399.079 206.45 399.625 206.13 400.171 205.811 400.873 205.994 401.193 206.54Z" transform="matrix(1 0 0 -1 1237 560.709)"/><path d="M0.947657-0.644112 6.10055 6.93715 4.20524 8.22537-0.947657 0.644112ZM9.96522 12.6231 15.1181 20.2043 13.2228 21.4926 8.06991 13.9113ZM18.9828 25.8903 24.1357 33.4715 22.2404 34.7598 17.0875 27.1785ZM28.0004 39.1575 33.1532 46.7387 31.2579 48.027 26.105 40.4457ZM37.0179 52.4247 42.1708 60.006 40.2755 61.2942 35.1226 53.7129ZM46.0355 65.6919 51.1884 73.2732 49.2931 74.5614 44.1402 66.9801ZM55.053 78.9591 60.2059 86.5404 58.3106 87.8286 53.1577 80.2473ZM64.0706 92.2263 69.2235 99.8076 67.3282 101.096 62.1753 93.5145ZM73.0882 105.493 78.2411 113.075 76.3458 114.363 71.1929 106.782ZM82.1058 118.761 87.2586 126.342 85.3633 127.63 80.2104 120.049ZM91.1233 132.028 96.2762 139.609 94.3809 140.897 89.228 133.316ZM100.141 145.295 105.294 152.876 103.398 154.165 98.2456 146.583ZM109.158 158.562 114.311 166.144 112.416 167.432 107.263 159.851ZM118.176 171.829 123.329 179.411 121.434 180.699 116.281 173.118ZM127.194 185.097 132.346 192.678 130.451 193.966 125.298 186.385ZM136.211 198.364 141.364 205.945 139.469 207.233 134.316 199.652ZM145.229 211.631 150.382 219.212 148.486 220.501 143.333 212.919ZM154.246 224.898 159.399 232.48 157.504 233.768 152.351 226.187ZM163.264 238.166 168.417 245.747 166.521 247.035 161.368 239.454ZM172.281 251.433 177.434 259.014 175.539 260.302 170.386 252.721ZM181.299 264.7 186.452 272.281 184.557 273.569 179.404 265.988ZM190.316 277.967 195.469 285.548 193.574 286.837 188.421 279.255ZM199.334 291.234 204.487 298.816 202.592 300.104 197.439 292.523ZM208.352 304.502 213.504 312.083 211.609 313.371 206.456 305.79ZM217.369 317.769 222.522 325.35 220.627 326.638 215.474 319.057ZM226.387 331.036 231.54 338.617 229.644 339.906 224.491 332.324ZM235.404 344.303 240.557 351.884 238.662 353.173 233.509 345.591ZM244.422 357.57 249.575 365.152 247.679 366.44 242.526 358.859ZM253.439 370.838 258.592 378.419 256.697 379.707 251.544 372.126ZM262.457 384.105 267.61 391.686 265.715 392.974 260.562 385.393ZM271.474 397.372 276.627 404.953 274.732 406.242 269.579 398.66ZM280.492 410.639 285.645 418.221 283.75 419.509 278.597 411.927ZM289.51 423.906 294.663 431.488 292.767 432.776 287.614 425.195ZM298.527 437.174 303.68 444.755 301.785 446.043 296.632 438.462ZM307.545 450.441 312.698 458.022 310.802 459.31 305.649 451.729ZM316.562 463.708 321.715 471.289 319.82 472.578 314.667 464.996ZM325.58 476.975 330.733 484.557 328.837 485.845 323.685 478.264ZM334.598 490.243 339.75 497.824 337.855 499.112 332.702 491.531ZM343.615 503.51 348.768 511.091 346.873 512.379 341.72 504.798ZM352.633 516.777 357.786 524.358 355.89 525.646 350.737 518.065ZM361.65 530.044 366.803 537.625 364.908 538.914 359.755 531.332ZM370.668 543.311 375.821 550.893 373.925 552.181 368.772 544.599ZM379.685 556.578 384.838 564.16 382.943 565.448 377.79 557.867ZM388.703 569.846 393.856 577.427 391.96 578.715 386.808 571.134ZM397.72 583.113 402.873 590.694 400.978 591.982 395.825 584.401ZM406.738 596.38 411.891 603.961 409.996 605.249 404.843 597.668ZM415.756 609.647 418.633 613.881 416.738 615.169 413.86 610.935ZM416.65 582.705 418.977 616.426 388.479 601.853C387.908 601.58 387.666 600.896 387.939 600.325 388.212 599.754 388.896 599.512 389.467 599.785L418.193 613.511 416.556 614.624 414.364 582.862C414.321 582.231 414.797 581.684 415.428 581.64 416.06 581.597 416.607 582.073 416.65 582.705Z" transform="matrix(1 0 0 -1 1231 1453.42)"/><path d="M0.994872-0.568475 5.54267 7.3905 3.55293 8.52745-0.994872 0.568475ZM8.95352 13.3597 13.5013 21.3187 11.5116 22.4557 6.96377 14.4967ZM16.9122 27.2879 21.46 35.2469 19.4702 36.3839 14.9224 28.4249ZM24.8708 41.2162 29.4186 49.1751 27.4289 50.3121 22.8811 42.3531ZM32.8295 55.1444 37.3773 63.1033 35.3875 64.2403 30.8397 56.2813ZM40.7881 69.0726 45.3359 77.0316 43.3462 78.1685 38.7984 70.2095ZM48.7467 83.0008 53.2945 90.9598 51.3048 92.0967 46.757 84.1377ZM56.7054 96.929 61.2532 104.888 59.2634 106.025 54.7156 98.0659ZM64.664 110.857 69.2118 118.816 67.2221 119.953 62.6743 111.994ZM72.6227 124.785 77.1705 132.744 75.1807 133.881 70.6329 125.922ZM80.5813 138.714 85.1291 146.673 83.1394 147.81 78.5916 139.851ZM88.54 152.642 93.0878 160.601 91.098 161.738 86.5502 153.779ZM96.4986 166.57 101.046 174.529 99.0567 175.666 94.5089 167.707ZM104.457 180.498 109.005 188.457 107.015 189.594 102.468 181.635ZM112.416 194.426 116.964 202.385 114.974 203.522 110.426 195.563ZM120.375 208.355 124.922 216.314 122.933 217.451 118.385 209.492ZM128.333 222.283 132.881 230.242 130.891 231.379 126.343 223.42ZM136.292 236.211 140.84 244.17 138.85 245.307 134.302 237.348ZM144.251 250.139 148.798 258.098 146.809 259.235 142.261 251.276ZM152.209 264.068 156.757 272.026 154.767 273.163 150.219 265.204ZM160.168 277.996 164.716 285.955 162.726 287.092 158.178 279.133ZM168.126 291.924 172.674 299.883 170.685 301.02 166.137 293.061ZM176.085 305.852 180.633 313.811 178.643 314.948 174.095 306.989ZM184.044 319.78 188.592 327.739 186.602 328.876 182.054 320.917ZM192.002 333.709 196.55 341.668 194.56 342.805 190.013 334.846ZM199.961 347.637 204.509 355.596 202.519 356.733 197.971 348.774ZM207.92 361.565 212.467 369.524 210.478 370.661 205.93 362.702ZM215.878 375.493 220.426 383.452 218.436 384.589 213.889 376.63ZM223.837 389.421 228.385 397.38 226.395 398.517 221.847 390.558ZM231.796 403.35 236.343 411.309 234.354 412.446 229.806 404.487ZM239.754 417.278 244.302 425.237 242.312 426.374 237.765 418.415ZM247.713 431.206 252.261 439.165 250.271 440.302 245.723 432.343ZM255.672 445.134 260.219 453.093 258.23 454.23 253.682 446.271ZM263.63 459.063 268.178 467.022 266.188 468.159 261.64 460.2ZM271.589 472.991 276.137 480.95 274.147 482.087 269.599 474.128ZM279.547 486.919 284.095 494.878 282.106 496.015 277.558 488.056ZM287.506 500.847 292.054 508.806 290.064 509.943 285.516 501.984ZM295.465 514.775 300.013 522.734 298.023 523.871 293.475 515.912ZM303.423 528.704 307.971 536.663 305.982 537.8 301.434 529.841ZM311.382 542.632 315.93 550.591 313.94 551.728 309.392 543.769ZM319.341 556.56 323.889 564.519 321.899 565.656 317.351 557.697ZM327.299 570.488 331.847 578.447 329.857 579.584 325.31 571.625ZM335.258 584.417 339.806 592.375 337.816 593.512 333.268 585.553ZM343.217 598.345 347.764 606.304 345.775 607.441 341.227 599.482ZM351.175 612.273 355.723 620.232 353.733 621.369 349.186 613.41ZM359.134 626.201 363.682 634.16 361.692 635.297 357.144 627.338ZM367.093 640.129 371.64 648.088 369.651 649.225 365.103 641.266ZM375.051 654.057 379.599 662.016 377.609 663.153 373.061 655.194ZM383.01 667.986 387.558 675.945 385.568 677.082 381.02 669.123ZM390.969 681.914 395.516 689.873 393.527 691.01 388.979 683.051ZM398.927 695.842 403.475 703.801 401.485 704.938 396.937 696.979ZM406.886 709.77 411.434 717.729 409.444 718.866 404.896 710.907ZM414.844 723.698 419.392 731.657 417.402 732.794 412.855 724.835ZM422.803 737.627 426.794 744.61 424.804 745.747 420.813 738.764ZM427.234 713.361 426.931 747.161 397.659 730.261C397.111 729.944 396.923 729.244 397.239 728.695 397.556 728.147 398.257 727.96 398.805 728.276L426.376 744.194 424.657 745.177 424.942 713.341C424.948 712.708 425.466 712.2 426.098 712.205 426.731 712.211 427.24 712.729 427.234 713.361Z" transform="matrix(1 0 0 -1 1228 1451.16)"/></g></svg>